<svg xmlns="http://www.w3.org/2000/svg" width="375" height="364" viewBox="0 0 375 364" fill="none">
  <path opacity="0.2" d="M515.996 3.39588L510.838 0M515.996 3.39588H500.71M515.996 3.39588L521.325 6.9039M515.996 3.39588H526.821M495.798 0H510.838L512.715 0.00132395L514.572 0.00867693L516.391 0.0293508L518.153 0.0700672L519.838 0.136142L521.429 0.235601L522.907 0.37376L524.278 0.549946L525.455 0.793573L526.527 1.0759L526.821 1.17479V3.39588M495.798 0H480.758M495.798 0L500.71 3.39588M480.758 0H465.718M480.758 0L485.425 3.39588M465.718 0H450.678M465.718 0L470.14 3.39588M450.678 0H435.639M450.678 0L454.854 3.39588M435.639 0H420.598M435.639 0L439.569 3.39588M420.598 0H405.559M420.598 0L424.283 3.39588M405.559 0H390.519M405.559 0L408.997 3.39588M390.519 0H375.479M390.519 0L393.712 3.39588M375.479 0H360.439M375.479 0L378.426 3.39588M360.439 0H345.399M360.439 0L363.141 3.39588M345.399 0H330.359M345.399 0L347.855 3.39588M330.359 0H315.319M330.359 0L330.905 0.838953L331.732 2.10909L332.57 3.39588M315.319 0H300.279M315.319 0L315.804 0.838953L317.284 3.39588M300.279 0H285.24M300.279 0L301.999 3.39588M285.24 0H270.199M285.24 0L285.786 1.26076L286.34 2.53623L286.526 2.96539L286.713 3.39588M270.199 0H255.16M270.199 0L270.655 1.26076L270.809 1.68392L270.963 2.10909L271.428 3.39588M255.16 0H240.12M255.16 0L256.142 3.39588M240.12 0L240.211 0.418468L240.302 0.838953L240.763 2.96539L240.857 3.39588M240.12 0H225.08M225.08 0H210.04M225.08 0L225.571 3.39588M210.04 0H195M210.04 0L210.131 1.26076L210.286 3.39588M195 0H179.96M195 0V3.39588M179.96 0H164.92M179.96 0L179.869 1.26076L179.714 3.39588M164.92 0H149.88M164.92 0L164.429 3.39588M149.88 0L149.789 0.418468L149.698 0.838953L149.237 2.96539L149.143 3.39588M149.88 0H134.84M134.84 0H119.8M134.84 0L133.983 2.96539L133.858 3.39588M119.8 0H104.761M119.8 0L119.345 1.26076L119.191 1.68392L118.883 2.53623L118.728 2.96539L118.572 3.39588M104.761 0H89.7207M104.761 0L104.214 1.26076L103.66 2.53623L103.474 2.96539L103.287 3.39588M89.7207 0H74.6809M89.7207 0L88.0015 3.39588M74.6809 0H59.6407M74.6809 0L74.1956 0.838953L72.7159 3.39588M59.6407 0H44.601M59.6407 0L57.4303 3.39588M44.601 0H29.5612M44.601 0L42.1448 3.39588M29.5612 0H14.521M29.5612 0L26.8592 3.39588M14.521 0H-0.518791M14.521 0L11.5737 3.39588M-0.518791 0H-15.5586M-0.518791 0L-3.71188 3.39588M-15.5586 0H-30.5984M-15.5586 0L-18.9974 3.39588M-30.5984 0H-45.6385M-30.5984 0L-34.283 3.39588M-45.6385 0H-60.6783M-45.6385 0L-49.5685 3.39588M-60.6783 0H-75.7181M-60.6783 0L-64.8541 3.39588M-75.7181 0H-90.7583M-75.7181 0L-80.1396 3.39588M-90.7583 0H-105.798M-90.7583 0L-95.4249 3.39588M-136.821 3.39588V1.17481L-136.527 1.0759L-135.455 0.793573L-134.278 0.549946L-132.907 0.37376L-131.429 0.235601L-129.838 0.136142L-128.153 0.0700672L-126.391 0.0293508L-124.572 0.00867693L-122.715 0.00132395L-120.838 0H-105.798M-105.798 0L-110.71 3.39588M-120.838 0L-125.996 3.39588M-95.4249 3.39588H-80.1396M-95.4249 3.39588H-110.71M-95.4249 3.39588L-100.247 6.9039M-80.1396 3.39588L-84.7077 6.9039M-80.1396 3.39588H-64.8541M-34.283 3.39588H-18.9974M-34.283 3.39588H-49.5685M-34.283 3.39588L-35.2228 4.26221L-38.0896 6.9039M-18.9974 3.39588L-22.5503 6.9039M-18.9974 3.39588H-3.71188M26.8592 3.39588H42.1448M26.8592 3.39588H11.5737M26.8592 3.39588L26.17 4.26221L25.823 4.69738L24.0674 6.9039M42.1448 3.39588L41.832 3.82771L41.5181 4.26221L39.607 6.9039M42.1448 3.39588H57.4303M88.0015 3.39588L87.7823 3.82771L86.2248 6.9039M88.0015 3.39588H103.287M88.0015 3.39588H72.7159M103.287 3.39588L102.911 4.26221L102.722 4.69738L102.532 5.13522L101.764 6.9039M103.287 3.39588H118.572M149.143 3.39588H164.429M149.143 3.39588H133.858M149.143 3.39588L148.382 6.9039M164.429 3.39588L164.366 3.82771L164.304 4.26221L164.241 4.69738L164.05 6.01556L163.921 6.9039M164.429 3.39588H179.714M210.286 3.39588H225.571M210.286 3.39588H195M210.286 3.39588L210.539 6.9039M225.571 3.39588L225.634 3.82771L225.696 4.26221L225.759 4.69738L226.078 6.9039M225.571 3.39588H240.857M271.428 3.39588H286.713M271.428 3.39588H256.142M271.428 3.39588L271.741 4.26221L272.376 6.01556L272.536 6.45873L272.697 6.9039M286.713 3.39588L287.089 4.26221L287.278 4.69738L287.468 5.13522L288.236 6.9039M286.713 3.39588H301.999M332.57 3.39588H347.855M332.57 3.39588H317.284M332.57 3.39588L333.134 4.26221L333.418 4.69738L334.854 6.9039M347.855 3.39588L348.168 3.82771L348.482 4.26221L350.393 6.9039M347.855 3.39588H363.141M393.712 3.39588H408.997M393.712 3.39588H378.426M393.712 3.39588L394.527 4.26221L394.937 4.69738L397.011 6.9039M408.997 3.39588L412.55 6.9039M408.997 3.39588H424.283M454.854 3.39588H470.14M454.854 3.39588H439.569M454.854 3.39588L459.168 6.9039M470.14 3.39588L474.708 6.9039M470.14 3.39588H485.425M-136.875 35.1523H-136.821M-121.49 35.1523L-115.654 30.6705M-121.49 35.1523L-127.549 39.8056M-121.49 35.1523H-103.907M-121.49 35.1523H-136.821M-115.654 30.6705H-132.912M-115.654 30.6705L-110.029 26.3508M-115.654 30.6705H-98.3954M-132.912 30.6705L-126.975 26.3508M-132.912 30.6705H-136.821M-132.912 30.6705L-136.821 33.5138M-115.724 18.1641H-99.3697M-115.724 18.1641L-110.388 14.2817M-115.724 18.1641H-132.077M-115.724 18.1641L-121.25 22.1847M-99.3697 18.1641L-94.3143 14.2817M-99.3697 18.1641L-104.605 22.1847M-99.3697 18.1641H-83.0158M-110.388 14.2817H-94.3143M-110.388 14.2817L-105.232 10.5307M-110.388 14.2817H-126.461M-94.3143 14.2817H-78.2413M-94.3143 14.2817L-89.43 10.5307M-136.99 105.893H-136.821M-122.802 105.893L-115.277 98.4628M-122.802 105.893L-130.702 113.694M-122.802 105.893H-100.102M-122.802 105.893H-136.821M-115.277 98.4628L-108.099 91.376M-115.277 98.4628H-93.1142M-115.277 98.4628H-136.821M-129.749 91.376H-108.099M-129.749 91.376L-122.407 84.6096M-129.749 91.376H-136.821M-129.749 91.376L-136.821 97.8932M-115.39 78.1422H-94.6973M-115.39 78.1422L-108.676 71.9551M-115.39 78.1422H-136.082M-115.39 78.1422L-122.407 84.6096M-94.6973 78.1422L-88.4307 71.9551M-94.6973 78.1422L-101.247 84.6096M-94.6973 78.1422H-74.0044M-108.676 71.9551H-88.4307M-108.676 71.9551H-128.921M-108.676 71.9551L-102.246 66.0296M-88.4307 71.9551L-82.4299 66.0296M-88.4307 71.9551H-68.1858M-90.1707 54.9009H-71.1594M-90.1707 54.9009L-84.4934 49.6689M-90.1707 54.9009H-109.182M-90.1707 54.9009L-96.0833 60.3498M-71.1594 54.9009L-65.8606 49.6689M-71.1594 54.9009L-76.6776 60.3498M-71.1594 54.9009H-52.1478M-84.4934 49.6689H-65.8606M-84.4934 49.6689H-103.126M-84.4934 49.6689L-79.0377 44.6411M-65.8606 49.6689L-60.7686 44.6411M-65.8606 49.6689H-47.2275M-68.7416 35.1523H-51.1589M-68.7416 35.1523L-63.8783 30.6705M-68.7416 35.1523H-86.3243M-68.7416 35.1523L-73.7911 39.8056M-51.1589 35.1523L-46.6198 30.6705M-51.1589 35.1523L-55.8718 39.8056M-51.1589 35.1523H-33.5761M-63.8783 30.6705H-46.6198M-63.8783 30.6705H-81.1368M-63.8783 30.6705L-59.191 26.3508M-46.6198 30.6705L-42.245 26.3508M-46.6198 30.6705H-29.3613M-50.3082 18.1641H-33.9543M-50.3082 18.1641L-46.0955 14.2817M-50.3082 18.1641H-66.6618M-50.3082 18.1641L-54.6706 22.1847M-33.9543 18.1641L-30.0225 14.2817M-33.9543 18.1641L-38.026 22.1847M-33.9543 18.1641H-17.6003M-46.0955 14.2817H-30.0225M-46.0955 14.2817L-42.0248 10.5307M-46.0955 14.2817H-62.1684M-30.0225 14.2817H-13.9493M-30.0225 14.2817L-26.2232 10.5307M-125.191 234.717L-114.6 220.075M-125.191 234.717L-136.533 250.395M-125.191 234.717H-93.1723M-125.191 234.717H-136.821M-114.6 220.075L-104.686 206.372M-114.6 220.075H-83.64M-114.6 220.075H-136.821M-114.815 181.438H-86.6499M-114.815 181.438L-105.764 170.064M-114.815 181.438L-124.427 193.518M-114.815 181.438H-136.821M-86.6499 181.438L-78.4221 170.064M-86.6499 181.438L-95.3886 193.518M-86.6499 181.438H-58.4849M-105.764 170.064H-78.4221M-105.764 170.064H-133.106M-105.764 170.064L-97.2271 159.335M-78.4221 170.064L-70.661 159.335M-78.4221 170.064H-51.0797M-81.5292 139.607H-56.3899M-81.5292 139.607L-74.2958 130.518M-81.5292 139.607H-106.668M-81.5292 139.607L-89.1614 149.2M-56.3899 139.607L-49.8143 130.518M-56.3899 139.607L-63.3288 149.2M-56.3899 139.607H-31.251M-74.2958 130.518H-49.8143M-74.2958 130.518H-98.7773M-74.2958 130.518L-67.4316 121.891M-49.8143 130.518L-43.574 121.891M-49.8143 130.518H-25.3331M-54.7018 105.893H-32.0014M-54.7018 105.893L-48.7888 98.4628M-54.7018 105.893H-77.4018M-54.7018 105.893L-60.9082 113.694M-32.0014 105.893L-26.6262 98.4628M-32.0014 105.893L-37.6441 113.694M-32.0014 105.893H-9.30134M-48.7888 98.4628H-26.6262M-48.7888 98.4628H-70.9513M-48.7888 98.4628L-43.1495 91.376M-26.6262 98.4628L-21.4996 91.376M-26.6262 98.4628H-4.46366M-32.619 78.1422H-11.9265M-32.619 78.1422L-27.6956 71.9551M-32.619 78.1422H-53.3119M-32.619 78.1422L-37.7654 84.6096M-11.9265 78.1422L-7.45039 71.9551M-11.9265 78.1422L-16.6049 84.6096M-11.9265 78.1422H8.76598M-27.6956 71.9551H-7.45039M-27.6956 71.9551H-47.9405M-27.6956 71.9551L-22.9807 66.0296M-7.45039 71.9551L-3.16402 66.0296M-7.45039 71.9551H12.7945M-14.1252 54.9009H4.88609M-14.1252 54.9009L-9.96187 49.6689M-14.1252 54.9009H-33.1365M-14.1252 54.9009L-18.461 60.3498M4.88609 54.9009L5.36793 54.2354L8.67093 49.6689M4.88609 54.9009L0.944682 60.3498M4.88609 54.9009H23.8977M-9.96187 49.6689H8.67093M-9.96187 49.6689H-28.5947M-9.96187 49.6689L-5.961 44.6411M8.67093 49.6689L12.3082 44.6411M8.67093 49.6689H27.3041M1.58931 35.1523H19.1724M1.58931 35.1523L5.15604 30.6705M1.58931 35.1523H-15.9934M1.58931 35.1523L-2.1136 39.8056M19.1724 35.1523L22.4145 30.6705M19.1724 35.1523L17.9249 36.8769L15.8058 39.8056M19.1724 35.1523H36.7551M5.15604 30.6705H22.4145M5.15604 30.6705H-12.1025M5.15604 30.6705L8.59316 26.3508M22.4145 30.6705L25.5392 26.3508M22.4145 30.6705H39.673M15.1072 18.1641H31.4612M15.1072 18.1641L18.1966 14.2817M15.1072 18.1641H-1.24638M15.1072 18.1641L11.9083 22.1847M31.4612 18.1641L33.5769 15.2401L33.9239 14.7596L34.2699 14.2817M31.4612 18.1641L28.5529 22.1847M31.4612 18.1641H47.8151M18.1966 14.2817H34.2699M18.1966 14.2817L21.1816 10.5307M18.1966 14.2817H2.12368M34.2699 14.2817H50.3429M34.2699 14.2817L36.9832 10.5307M-113.59 401.503H-69.5058M-113.59 401.503L-99.7092 374.09M-113.59 401.503L-128.844 431.626M-113.59 401.503L-136.821 401.503M-69.5058 401.503L-57.6076 374.09M-69.5058 401.503L-82.5803 431.626M-69.5058 401.503H-25.4216M-99.7092 374.09H-57.6076M-99.7092 374.09L-87.0229 349.037M-99.7092 374.09H-136.821M-57.6076 374.09L-46.7339 349.037M-57.6076 374.09H-15.5064M-64.6675 304.889H-27.5719M-64.6675 304.889L-54.7681 285.34M-64.6675 304.889H-101.763M-64.6675 304.889L-75.3839 326.052M-27.5719 304.889L-19.087 285.34M-27.5719 304.889L-36.7575 326.052M-27.5719 304.889H9.5233M-54.7681 285.34H-19.087M-54.7681 285.34H-90.4493M-54.7681 285.34L-45.5957 267.226M-19.087 285.34L-11.2249 267.226M-19.087 285.34H16.5942M-29.1339 234.717H2.88514M-29.1339 234.717L-21.7198 220.075M-29.1339 234.717H-61.1532M-29.1339 234.717L-37.0734 250.395M2.88514 234.717L9.24021 220.075M2.88514 234.717L-3.91996 250.395M2.88514 234.717H34.9042M-21.7198 220.075H9.24021M-21.7198 220.075H-52.6801M-21.7198 220.075L-14.7805 206.372M9.24021 220.075L15.1881 206.372M9.24021 220.075H40.2002M-2.15509 181.438H26.01M-2.15509 181.438L3.60478 170.064M-2.15509 181.438H-30.3198M-2.15509 181.438L-8.272 193.518M26.01 181.438L30.9468 170.064M26.01 181.438L20.7669 193.518M26.01 181.438H54.175M3.60478 170.064H30.9468M3.60478 170.064H-23.7376M3.60478 170.064L9.03732 159.335M30.9468 170.064L35.6034 159.335M30.9468 170.064H58.2889M19.0269 139.607H44.1661M19.0269 139.607L23.6298 130.518M19.0269 139.607H-6.11206M19.0269 139.607L14.1698 149.2M44.1661 139.607L48.1114 130.518M44.1661 139.607L40.0028 149.2M44.1661 139.607H69.3051M23.6298 130.518H48.1114M23.6298 130.518H-0.851643M23.6298 130.518L27.9981 121.891M48.1114 130.518L51.8554 121.891M48.1114 130.518H72.5929M36.0991 105.893H58.7991M36.0991 105.893L39.8618 98.4628M36.0991 105.893H13.3987M36.0991 105.893L32.1494 113.694M58.7991 105.893L62.0243 98.4628M58.7991 105.893L55.4135 113.694M58.7991 105.893H81.4991M39.8618 98.4628H62.0243M39.8618 98.4628H17.6989M39.8618 98.4628L43.4503 91.376M62.0243 98.4628L65.1003 91.376M62.0243 98.4628H84.1869M50.1514 78.1422H70.8442M50.1514 78.1422L53.2847 71.9551M50.1514 78.1422H29.4588M50.1514 78.1422L46.8767 84.6096M70.8442 78.1422L73.5296 71.9551M70.8442 78.1422L68.0372 84.6096M70.8442 78.1422H91.5368M53.2847 71.9551H73.5296M53.2847 71.9551H33.0394M53.2847 71.9551L56.2852 66.0296M73.5296 71.9551L76.1015 66.0296M73.5296 71.9551H93.7748M61.9203 54.9009H80.9319M61.9203 54.9009L64.5697 49.6689M61.9203 54.9009H42.909M61.9203 54.9009L59.161 60.3498M80.9319 54.9009L80.6413 55.5697L78.5667 60.3498M80.9319 54.9009L83.2025 49.6689M80.9319 54.9009H99.9432M64.5697 49.6689H83.2025M64.5697 49.6689H45.9369M64.5697 49.6689L67.1157 44.6411M83.2025 49.6689L85.3849 44.6411M83.2025 49.6689H101.836M71.9206 35.1523H89.5033M71.9206 35.1523L74.1901 30.6705M71.9206 35.1523H54.3378M71.9206 35.1523L69.5643 39.8056M89.5033 35.1523L91.4486 30.6705M89.5033 35.1523L88.755 36.8769L88.25 38.0402L87.4837 39.8056M89.5033 35.1523H107.086M74.1901 30.6705H91.4486M74.1901 30.6705H56.9316M74.1901 30.6705L76.3773 26.3508M91.4486 30.6705L92.1599 29.0319L92.6287 27.952L93.3237 26.3508M91.4486 30.6705H108.707M80.523 18.1641H96.8766M80.523 18.1641L82.0038 15.2401L82.4887 14.2817M80.523 18.1641H64.1691M80.523 18.1641L78.7454 21.6742L78.4872 22.1847M96.8766 18.1641L98.1462 15.2401L98.3543 14.7596L98.562 14.2817M96.8766 18.1641L96.0118 20.1564L95.1318 22.1847M96.8766 18.1641H113.231M82.4887 14.2817H98.562M82.4887 14.2817L84.3884 10.5307M82.4887 14.2817H66.4158M98.562 14.2817H114.635M98.562 14.2817L100.19 10.5307M62.7471 401.503H106.831M62.7471 401.503L68.696 374.09M62.7471 401.503H18.6629M62.7471 401.503L56.2099 431.626M106.831 401.503L110.798 374.09M106.831 401.503L102.473 431.626M106.831 401.503H150.916M68.696 374.09H110.798M68.696 374.09H26.5948M68.696 374.09L74.1331 349.037M110.798 374.09L114.422 349.037M110.798 374.09H152.899M83.7141 304.889H120.809M83.7141 304.889L87.9565 285.34M83.7141 304.889H46.6185M83.7141 304.889L79.1211 326.052M120.809 304.889L123.638 285.34M120.809 304.889L117.748 326.052M120.809 304.889H157.905M87.9565 285.34H123.638M87.9565 285.34H52.2754M87.9565 285.34L91.8876 267.226M123.638 285.34L126.258 267.226M123.638 285.34H159.319M98.9426 234.717H130.962M98.9426 234.717L102.12 220.075M98.9426 234.717H66.9235M98.9426 234.717L95.54 250.395M130.962 234.717L133.08 220.075M130.962 234.717L128.693 250.395M130.962 234.717H162.981M102.12 220.075H133.08M102.12 220.075H71.1602M102.12 220.075L105.094 206.372M133.08 220.075L135.063 206.372M133.08 220.075H164.04M110.505 181.438H138.67M110.505 181.438L112.973 170.064M110.505 181.438H82.3401M110.505 181.438L107.883 193.518M138.67 181.438L140.316 170.064M138.67 181.438L136.922 193.518M138.67 181.438H166.835M112.973 170.064H140.316M112.973 170.064H85.6314M112.973 170.064L115.302 159.335M140.316 170.064L141.868 159.335M140.316 170.064H167.658M119.583 139.607H144.722M119.583 139.607L121.556 130.518M119.583 139.607H94.444M119.583 139.607L117.501 149.2M144.722 139.607L146.037 130.518M144.722 139.607L143.334 149.2M144.722 139.607H169.861M121.556 130.518H146.037M121.556 130.518H97.0744M121.556 130.518L123.428 121.891M146.037 130.518L147.285 121.891M146.037 130.518H170.519M126.9 105.893H149.6M126.9 105.893L128.512 98.4628M126.9 105.893H104.2M126.9 105.893L125.207 113.694M149.6 105.893L150.675 98.4628M149.6 105.893L148.471 113.694M149.6 105.893H172.3M128.512 98.4628H150.675M128.512 98.4628H106.349M128.512 98.4628L129.098 95.7664L130.05 91.376M150.675 98.4628L151.7 91.376M150.675 98.4628H172.837M132.922 78.1422H153.615M132.922 78.1422L134.265 71.9551M132.922 78.1422H112.229M132.922 78.1422L131.875 82.9657L131.518 84.6096M153.615 78.1422L153.955 75.7901L154.51 71.9551M153.615 78.1422L152.679 84.6096M153.615 78.1422H174.307M134.265 71.9551L134.428 71.2002L135.551 66.0296M134.265 71.9551H154.51M134.265 71.9551H114.02M154.51 71.9551L154.836 69.7032L154.943 68.9603L155.05 68.2222L155.367 66.0296M154.51 71.9551H174.755M137.966 54.9009H156.977M137.966 54.9009L138.539 52.2585L138.681 51.6064L138.822 50.957L138.962 50.3116L139.101 49.6689M137.966 54.9009H118.955M137.966 54.9009L136.783 60.3498M156.977 54.9009L157.548 50.957L157.641 50.3116L157.734 49.6689M156.977 54.9009L156.189 60.3498M156.977 54.9009H175.989M139.101 49.6689H157.734M139.101 49.6689H120.468M139.101 49.6689L139.788 46.5033L139.924 45.8792L140.192 44.6411M157.734 49.6689L158.192 46.5033L158.283 45.8792L158.372 45.2585L158.462 44.6411M157.734 49.6689H176.367M142.252 35.1523H159.835M142.252 35.1523L143.224 30.6705M142.252 35.1523H124.669M142.252 35.1523L142.003 36.2989L141.625 38.0402L141.242 39.8056M159.835 35.1523L159.752 35.7243L159.247 39.2143L159.161 39.8056M159.835 35.1523L160.483 30.6705M159.835 35.1523H177.417M143.224 30.6705H160.483M143.224 30.6705H125.966M143.224 30.6705L144.162 26.3508M160.483 30.6705L160.72 29.0319L160.798 28.4906L160.876 27.952L161.108 26.3508M160.483 30.6705H177.741M145.939 18.1641H162.292M145.939 18.1641L146.573 15.2401L146.781 14.2817M145.939 18.1641H129.585M145.939 18.1641L145.615 19.6552L145.506 20.1564L145.397 20.6603L145.066 22.1847M162.292 18.1641L162.364 17.6716L162.505 16.6924L162.646 15.722L162.854 14.2817M162.292 18.1641L162.004 20.1564L161.931 20.6603L161.784 21.6742L161.711 22.1847M162.292 18.1641H178.646M146.781 14.2817H162.854M146.781 14.2817L147.495 10.9926L147.595 10.5307M146.781 14.2817H130.708M162.854 14.2817L162.923 13.8058L162.991 13.3319L163.06 12.86L163.128 12.3902L163.33 10.9926L163.397 10.5307M162.854 14.2817H178.927M239.084 401.503H283.169M239.084 401.503L237.101 374.09M239.084 401.503H195M239.084 401.503L241.263 431.626M283.169 401.503L279.203 374.09M283.169 401.503L287.527 431.626M283.169 401.503H327.253M237.101 374.09H279.203M237.101 374.09H195M237.101 374.09L235.289 349.037M279.203 374.09L275.578 349.037M279.203 374.09H321.304M232.095 304.889H269.191M232.095 304.889L230.681 285.34M232.095 304.889H195M232.095 304.889L233.626 326.052M269.191 304.889L266.362 285.34M269.191 304.889L272.252 326.052M269.191 304.889H306.286M230.681 285.34H266.362M230.681 285.34H195M230.681 285.34L229.371 267.226M266.362 285.34L263.742 267.226M266.362 285.34H302.043M227.019 234.717H259.038M227.019 234.717L225.96 220.075M227.019 234.717H195M227.019 234.717L228.153 250.395M259.038 234.717L256.92 220.075M259.038 234.717L261.307 250.395M259.038 234.717H291.057M225.96 220.075H256.92M225.96 220.075H195M225.96 220.075L224.969 206.372M256.92 220.075L254.937 206.372M256.92 220.075H287.88M223.165 181.438H251.33M223.165 181.438L222.342 170.064M223.165 181.438H195M223.165 181.438L224.039 193.518M251.33 181.438L249.684 170.064M251.33 181.438L253.078 193.518M251.33 181.438H279.495M222.342 170.064H249.684M222.342 170.064H195M222.342 170.064L221.566 159.335M249.684 170.064L248.132 159.335M249.684 170.064H277.027M220.139 139.607H245.278M220.139 139.607L219.481 130.518M220.139 139.607H195M220.139 139.607L220.833 149.2M245.278 139.607L243.963 130.518M245.278 139.607L246.666 149.2M245.278 139.607H270.417M219.481 130.518H243.963M219.481 130.518H195M219.481 130.518L218.857 121.891M243.963 130.518L242.715 121.891M243.963 130.518H268.444M217.7 105.893H240.4M217.7 105.893L217.163 98.4628M217.7 105.893H195M217.7 105.893L218.264 113.694M240.4 105.893L239.325 98.4628M240.4 105.893L241.529 113.694M240.4 105.893H263.1M217.163 98.4628H239.325M217.163 98.4628H195M217.163 98.4628L216.65 91.376M239.325 98.4628L238.3 91.376M239.325 98.4628H261.488M215.693 78.1422H236.385M215.693 78.1422L215.245 71.9551M215.693 78.1422H195M215.693 78.1422L216.161 84.6096M236.385 78.1422L235.6 72.714L235.49 71.9551M236.385 78.1422L237.321 84.6096M236.385 78.1422H257.078M215.245 71.9551L215.191 71.2002L214.816 66.0296M215.245 71.9551H235.49M215.245 71.9551H195M235.49 71.9551L235.164 69.7032L235.057 68.9603L234.95 68.2222L234.633 66.0296M235.49 71.9551H255.735M214.011 54.9009H233.023M214.011 54.9009L213.633 49.6689M214.011 54.9009H195M214.011 54.9009L214.157 56.9179L214.207 57.5973L214.256 58.2801L214.355 59.6563L214.406 60.3498M233.023 54.9009L232.452 50.957L232.266 49.6689M233.023 54.9009L233.811 60.3498M233.023 54.9009H252.034M213.633 49.6689H232.266M213.633 49.6689H195M213.633 49.6689L213.269 44.6411M232.266 49.6689L231.808 46.5033L231.717 45.8792L231.628 45.2585L231.538 44.6411M232.266 49.6689H250.899M212.583 35.1523H230.165M212.583 35.1523L212.259 30.6705M212.583 35.1523H195M212.583 35.1523L212.919 39.8056M230.165 35.1523L230.248 35.7243L230.753 39.2143L230.839 39.8056M230.165 35.1523L229.517 30.6705M230.165 35.1523H247.748M212.259 30.6705H229.517M212.259 30.6705H195M212.259 30.6705L211.946 26.3508M229.517 30.6705L229.28 29.0319L229.202 28.4906L229.124 27.952L228.892 26.3508M229.517 30.6705H246.776M211.354 18.1641H227.708M211.354 18.1641L211.073 14.2817M211.354 18.1641H195M211.354 18.1641L211.645 22.1847M227.708 18.1641L227.636 17.6716L227.495 16.6924L227.424 16.2059L227.284 15.2401L227.215 14.7596L227.146 14.2817M227.708 18.1641L227.996 20.1564L228.069 20.6603L228.216 21.6742L228.289 22.1847M227.708 18.1641H244.062M211.073 14.2817L211.039 13.8058L211.004 13.3319L210.97 12.86L210.802 10.5307M211.073 14.2817H227.146M211.073 14.2817H195M227.146 14.2817H243.219M227.146 14.2817L227.009 13.3319L226.94 12.86L226.872 12.3902L226.67 10.9926L226.603 10.5307M415.422 401.503H459.506M415.422 401.503L405.506 374.09M415.422 401.503H371.337M415.422 401.503L426.317 431.626M459.506 401.503L447.608 374.09M459.506 401.503L472.58 431.626M459.506 401.503H503.59M405.506 374.09H447.608M405.506 374.09H363.405M405.506 374.09L396.445 349.037M447.608 374.09L436.734 349.037M447.608 374.09H489.709M380.477 304.889H417.572M380.477 304.889L373.406 285.34M380.477 304.889H343.381M380.477 304.889L388.131 326.052M417.572 304.889L409.087 285.34M417.572 304.889L426.757 326.052M417.572 304.889H454.667M373.406 285.34H409.087M373.406 285.34H337.725M373.406 285.34L366.854 267.226M409.087 285.34L401.225 267.226M409.087 285.34H444.768M355.096 234.717H387.115M355.096 234.717L349.8 220.075M355.096 234.717H323.076M355.096 234.717L360.767 250.395M387.115 234.717L380.76 220.075M387.115 234.717L393.92 250.395M387.115 234.717H419.134M349.8 220.075H380.76M349.8 220.075H318.84M349.8 220.075L344.843 206.372M380.76 220.075L374.812 206.372M380.76 220.075H411.72M335.825 181.438H363.99M335.825 181.438L331.711 170.064M335.825 181.438H307.66M335.825 181.438L340.194 193.518M363.99 181.438L359.053 170.064M363.99 181.438L369.233 193.518M363.99 181.438H392.155M331.711 170.064H359.053M331.711 170.064H304.369M331.711 170.064L327.83 159.335M359.053 170.064L354.397 159.335M359.053 170.064H386.395M320.695 139.607H345.834M320.695 139.607L317.407 130.518M320.695 139.607H295.556M320.695 139.607L324.164 149.2M345.834 139.607L341.889 130.518M345.834 139.607L349.997 149.2M345.834 139.607H370.973M317.407 130.518H341.889M317.407 130.518H292.926M317.407 130.518L314.287 121.891M341.889 130.518L338.145 121.891M341.889 130.518H366.37M308.501 105.893H331.201M308.501 105.893L305.813 98.4628M308.501 105.893H285.8M308.501 105.893L311.322 113.694M331.201 105.893L327.976 98.4628M331.201 105.893L334.586 113.694M331.201 105.893H353.901M305.813 98.4628H327.976M305.813 98.4628H283.651M305.813 98.4628L303.25 91.376M327.976 98.4628L324.9 91.376M327.976 98.4628H350.138M298.463 78.1422L298.75 78.9351L299.038 79.732L300.802 84.6096M298.463 78.1422H319.156M298.463 78.1422L296.225 71.9551M298.463 78.1422H277.771M319.156 78.1422L316.47 71.9551M319.156 78.1422L321.963 84.6096M319.156 78.1422H339.849M296.225 71.9551H316.47M296.225 71.9551H275.98M296.225 71.9551L294.082 66.0296M316.47 71.9551L313.898 66.0296M316.47 71.9551H336.715M290.057 54.9009H309.068M290.057 54.9009L288.164 49.6689M290.057 54.9009H271.045M290.057 54.9009L292.028 60.3498M309.068 54.9009L307.638 51.6064L306.797 49.6689M309.068 54.9009L311.433 60.3498M309.068 54.9009H328.08M288.164 49.6689H306.797M288.164 49.6689H269.532M288.164 49.6689L286.57 45.2585L286.346 44.6411M306.797 49.6689L304.615 44.6411M306.797 49.6689H325.43M282.914 35.1523H300.497M282.914 35.1523L282.503 34.0156L281.293 30.6705M282.914 35.1523H265.331M282.914 35.1523L283.329 36.2989L284.17 38.6256L284.597 39.8056M300.497 35.1523L298.551 30.6705M300.497 35.1523L301.245 36.8769L301.75 38.0402L302.516 39.8056M300.497 35.1523H318.079M281.293 30.6705H298.551M281.293 30.6705H264.034M281.293 30.6705L280.116 27.4154L279.73 26.3508M298.551 30.6705L297.84 29.0319L297.371 27.952L296.676 26.3508M298.551 30.6705H315.81M276.769 18.1641H293.123M276.769 18.1641L275.886 15.722L275.365 14.2817M276.769 18.1641H260.415M276.769 18.1641L278.224 22.1847M293.123 18.1641L291.854 15.2401L291.646 14.7596L291.438 14.2817M293.123 18.1641L293.988 20.1564L294.868 22.1847M293.123 18.1641H309.477M275.365 14.2817H291.438M275.365 14.2817L274.681 12.3902L274.343 11.4564L274.175 10.9926L274.008 10.5307M275.365 14.2817H259.292M291.438 14.2817H307.511M291.438 14.2817L289.81 10.5307M516.13 285.34H480.449M516.13 285.34L504.338 267.226M516.13 285.34H526.821M516.13 285.34L526.821 301.761M483.172 234.717H515.191M483.172 234.717L473.64 220.075M483.172 234.717H451.153M483.172 234.717L493.38 250.395M515.191 234.717L504.6 220.075M515.191 234.717L526.533 250.395M515.191 234.717H526.821M473.64 220.075H504.6M473.64 220.075H442.68M473.64 220.075L464.718 206.372M504.6 220.075L494.686 206.372M504.6 220.075H526.821M448.485 181.438H476.65M448.485 181.438L441.08 170.064M448.485 181.438H420.32M448.485 181.438L456.35 193.518M476.65 181.438L468.422 170.064M476.65 181.438L485.389 193.518M476.65 181.438H504.815M441.08 170.064H468.422M441.08 170.064H413.738M441.08 170.064L434.095 159.335M468.422 170.064L460.661 159.335M468.422 170.064H495.764M421.251 139.607H446.39M421.251 139.607L415.333 130.518M421.251 139.607H396.112M421.251 139.607L427.496 149.2M446.39 139.607L439.814 130.518M446.39 139.607L453.329 149.2M446.39 139.607H471.529M415.333 130.518H439.814M415.333 130.518H390.852M415.333 130.518L409.717 121.891M439.814 130.518L433.574 121.891M439.814 130.518H464.296M399.301 105.893H422.001M399.301 105.893L394.464 98.4628M399.301 105.893H376.601M399.301 105.893L404.38 113.694M422.001 105.893L416.626 98.4628M422.001 105.893L427.644 113.694M422.001 105.893H444.701M394.464 98.4628H416.626M394.464 98.4628H372.301M394.464 98.4628L389.85 91.376M416.626 98.4628L411.5 91.376M416.626 98.4628H438.789M381.234 78.1422H401.926M381.234 78.1422L377.205 71.9551M381.234 78.1422H360.541M381.234 78.1422L385.444 84.6096M401.926 78.1422L397.45 71.9551M401.926 78.1422L406.605 84.6096M401.926 78.1422H422.619M377.205 71.9551H397.45M377.205 71.9551H356.961M377.205 71.9551L373.348 66.0296M397.45 71.9551L393.164 66.0296M397.45 71.9551H417.696M366.102 54.9009H385.114M366.102 54.9009L362.696 49.6689M366.102 54.9009H347.091M366.102 54.9009L369.65 60.3498M385.114 54.9009L381.329 49.6689M385.114 54.9009L389.056 60.3498M385.114 54.9009H404.125M362.696 49.6689H381.329M362.696 49.6689H344.063M362.696 49.6689L359.423 44.6411M381.329 49.6689L377.692 44.6411M381.329 49.6689H399.962M353.245 35.1523H370.828M353.245 35.1523L350.327 30.6705M353.245 35.1523H335.662M353.245 35.1523L353.992 36.2989L354.368 36.8769L356.275 39.8056M370.828 35.1523L367.585 30.6705M370.828 35.1523L374.194 39.8056M370.828 35.1523H388.41M350.327 30.6705H367.585M350.327 30.6705H333.068M350.327 30.6705L347.515 26.3508M367.585 30.6705L364.461 26.3508M367.585 30.6705H384.844M342.185 18.1641H358.539M342.185 18.1641L339.657 14.2817M342.185 18.1641H325.831M342.185 18.1641L344.802 22.1847M358.539 18.1641L356.423 15.2401L356.076 14.7596L355.73 14.2817M358.539 18.1641L361.447 22.1847M358.539 18.1641H374.892M339.657 14.2817H355.73M339.657 14.2817L337.516 10.9926L337.215 10.5307M339.657 14.2817H323.584M355.73 14.2817H371.803M355.73 14.2817L353.017 10.5307M521.807 139.607L513.259 130.518M521.807 139.607H496.668M521.807 139.607L526.821 144.939M521.807 139.607H526.821M513.259 130.518H488.777M513.259 130.518L505.146 121.891M513.259 130.518H526.821M490.102 105.893H512.802M490.102 105.893L483.114 98.4628M490.102 105.893H467.402M490.102 105.893L497.437 113.694M512.802 105.893L505.277 98.4628M512.802 105.893L520.702 113.694M512.802 105.893H526.821M483.114 98.4628H505.277M483.114 98.4628H460.951M483.114 98.4628L476.449 91.376M505.277 98.4628L498.099 91.376M505.277 98.4628H526.821M464.004 78.1422H484.697M464.004 78.1422L458.186 71.9551M464.004 78.1422H443.312M464.004 78.1422L470.086 84.6096M484.697 78.1422L478.431 71.9551M484.697 78.1422L491.247 84.6096M484.697 78.1422H505.39M458.186 71.9551H478.431M458.186 71.9551H437.941M458.186 71.9551L452.613 66.0296M478.431 71.9551L472.43 66.0296M478.431 71.9551H498.676M442.148 54.9009H461.159M442.148 54.9009L437.227 49.6689M442.148 54.9009H423.136M442.148 54.9009L447.272 60.3498M461.159 54.9009L455.861 49.6689M461.159 54.9009L466.678 60.3498M461.159 54.9009H480.171M437.227 49.6689H455.861M437.227 49.6689H418.595M437.227 49.6689L432.499 44.6411M455.861 49.6689L450.769 44.6411M455.861 49.6689H474.493M423.576 35.1523H441.159M423.576 35.1523L419.361 30.6705M423.576 35.1523H405.993M423.576 35.1523L427.952 39.8056M441.159 35.1523L436.62 30.6705M441.159 35.1523L445.872 39.8056M441.159 35.1523H458.742M419.361 30.6705H436.62M419.361 30.6705H402.102M419.361 30.6705L415.299 26.3508M436.62 30.6705L432.245 26.3508M436.62 30.6705H453.878M407.6 18.1641H423.954M407.6 18.1641L403.949 14.2817M407.6 18.1641H391.246M407.6 18.1641L411.381 22.1847M423.954 18.1641L420.022 14.2817M423.954 18.1641L428.026 22.1847M423.954 18.1641H440.308M403.949 14.2817H420.022M403.949 14.2817L400.422 10.5307M403.949 14.2817H387.876M420.022 14.2817H436.095M420.022 14.2817L416.223 10.5307M518.193 54.9009L511.759 49.6689M518.193 54.9009H499.182M518.193 54.9009L524.894 60.3498M518.193 54.9009H526.821M511.759 49.6689H493.126M511.759 49.6689L505.576 44.6411M511.759 49.6689H526.821M493.907 35.1523H511.49M493.907 35.1523L488.395 30.6705M493.907 35.1523H476.324M493.907 35.1523L499.63 39.8056M511.49 35.1523L505.654 30.6705M511.49 35.1523L517.549 39.8056M511.49 35.1523H526.821M488.395 30.6705H505.654M488.395 30.6705H471.137M488.395 30.6705L483.083 26.3508M505.654 30.6705L500.029 26.3508M505.654 30.6705H522.912M473.016 18.1641H489.37M473.016 18.1641L468.241 14.2817M473.016 18.1641H456.662M473.016 18.1641L477.96 22.1847M489.37 18.1641L484.314 14.2817M489.37 18.1641L494.605 22.1847M489.37 18.1641H505.724M468.241 14.2817H484.314M468.241 14.2817L463.628 10.5307M468.241 14.2817H452.168M484.314 14.2817H500.388M484.314 14.2817L479.43 10.5307M494.605 22.1847L500.029 26.3508M494.605 22.1847H511.25M494.605 22.1847H477.96M505.724 18.1641L500.388 14.2817M505.724 18.1641L511.25 22.1847M505.724 18.1641H522.077M500.388 14.2817H516.461M500.388 14.2817L495.232 10.5307M479.43 10.5307H463.628M479.43 10.5307H495.232M479.43 10.5307L474.708 6.9039M511.25 22.1847L516.976 26.3508M511.25 22.1847H526.821M522.077 18.1641L516.461 14.2817M522.077 18.1641L526.821 21.4429M522.077 18.1641H526.821M516.461 14.2817L511.033 10.5307M516.461 14.2817H526.821M495.232 10.5307H511.033M495.232 10.5307L490.247 6.9039M511.033 10.5307L505.786 6.9039M511.033 10.5307H526.821M500.029 26.3508H516.976M500.029 26.3508H483.083M522.912 30.6705L516.976 26.3508M522.912 30.6705L526.821 33.5138M522.912 30.6705H526.821M516.976 26.3508H526.821M483.083 26.3508H466.137M483.083 26.3508L477.96 22.1847M477.96 22.1847H461.315M517.549 39.8056L523.845 44.6411M517.549 39.8056H499.63M517.549 39.8056H526.821M526.875 35.1523H526.821M523.845 44.6411H505.576M523.845 44.6411L526.821 46.9264M523.845 44.6411H526.821M505.576 44.6411H487.307M505.576 44.6411L499.63 39.8056M499.63 39.8056H481.711M428.026 22.1847L432.245 26.3508M428.026 22.1847H444.671M428.026 22.1847H411.381M440.308 18.1641L436.095 14.2817M440.308 18.1641L444.671 22.1847M440.308 18.1641H456.662M436.095 14.2817H452.168M436.095 14.2817L432.025 10.5307M416.223 10.5307H432.025M416.223 10.5307L412.55 6.9039M416.223 10.5307H400.422M444.671 22.1847L449.191 26.3508M444.671 22.1847H461.315M456.662 18.1641L452.168 14.2817M456.662 18.1641L461.315 22.1847M452.168 14.2817L447.827 10.5307M432.025 10.5307H447.827M432.025 10.5307L428.09 6.9039M461.315 22.1847L466.137 26.3508M463.628 10.5307H447.827M463.628 10.5307L459.168 6.9039M447.827 10.5307L443.629 6.9039M432.245 26.3508H449.191M432.245 26.3508H415.299M453.878 30.6705L449.191 26.3508M453.878 30.6705L458.742 35.1523M453.878 30.6705H471.137M449.191 26.3508H466.137M415.299 26.3508H398.353M415.299 26.3508L411.381 22.1847M466.137 26.3508L471.137 30.6705M411.381 22.1847H394.736M458.742 35.1523L463.791 39.8056M458.742 35.1523H476.324M471.137 30.6705L476.324 35.1523M476.324 35.1523L481.711 39.8056M445.872 39.8056L450.769 44.6411M445.872 39.8056H463.791M445.872 39.8056H427.952M463.791 39.8056L469.038 44.6411M463.791 39.8056H481.711M481.711 39.8056L487.307 44.6411M450.769 44.6411H469.038M450.769 44.6411H432.499M474.493 49.6689L469.038 44.6411M474.493 49.6689L480.171 54.9009M474.493 49.6689H493.126M469.038 44.6411H487.307M432.499 44.6411H414.23M432.499 44.6411L427.952 39.8056M487.307 44.6411L493.126 49.6689M427.952 39.8056H410.033M480.171 54.9009L486.083 60.3498M480.171 54.9009H499.182M493.126 49.6689L499.182 54.9009M499.182 54.9009L505.489 60.3498M466.678 60.3498L472.43 66.0296M466.678 60.3498H486.083M466.678 60.3498H447.272M486.083 60.3498L492.246 66.0296M486.083 60.3498H505.489M505.489 60.3498L512.063 66.0296M505.489 60.3498H524.894M524.894 60.3498H526.821M524.894 60.3498L526.821 61.9165M472.43 66.0296H492.246M472.43 66.0296H452.613M498.676 71.9551L492.246 66.0296M498.676 71.9551L505.39 78.1422M498.676 71.9551H518.921M492.246 66.0296H512.063M452.613 66.0296H432.797M452.613 66.0296L447.272 60.3498M512.063 66.0296L518.921 71.9551M512.063 66.0296H526.821M447.272 60.3498H427.867M505.39 78.1422L512.407 84.6096M505.39 78.1422H526.082M518.921 71.9551L526.082 78.1422M518.921 71.9551H526.821M526.925 66.0296H526.821M526.082 78.1422L526.821 78.7807M526.082 78.1422H526.821M491.247 84.6096L498.099 91.376M491.247 84.6096H512.407M491.247 84.6096H470.086M512.407 84.6096L519.749 91.376M512.407 84.6096H526.821M527 78.9351L526.821 78.7807M498.099 91.376H519.749M498.099 91.376H476.449M519.749 91.376H526.821M519.749 91.376L526.821 97.8932M476.449 91.376H454.799M476.449 91.376L470.086 84.6096M470.086 84.6096H448.926M520.702 113.694H497.437M520.702 113.694L526.821 119.736M520.702 113.694H526.821M526.99 105.893H526.821M497.437 113.694H474.173M497.437 113.694L505.146 121.891M526.889 119.803L526.821 119.736M361.447 22.1847L364.461 26.3508M361.447 22.1847H378.092M361.447 22.1847H344.802M374.892 18.1641L371.803 14.2817M374.892 18.1641L378.092 22.1847M374.892 18.1641H391.246M371.803 14.2817H387.876M371.803 14.2817L368.818 10.5307M353.017 10.5307H368.818M353.017 10.5307L352.022 9.15649L350.393 6.9039M353.017 10.5307H337.215M378.092 22.1847L381.407 26.3508M378.092 22.1847H394.736M391.246 18.1641L387.876 14.2817M391.246 18.1641L394.736 22.1847M387.876 14.2817L384.62 10.5307M368.818 10.5307H384.62M368.818 10.5307L365.933 6.9039M394.736 22.1847L398.353 26.3508M400.422 10.5307L397.011 6.9039M400.422 10.5307H384.62M384.62 10.5307L384.221 10.0702L383.427 9.15649L381.472 6.9039M364.461 26.3508H381.407M364.461 26.3508H347.515M384.844 30.6705L381.407 26.3508M384.844 30.6705L388.41 35.1523M384.844 30.6705H402.102M381.407 26.3508H398.353M347.515 26.3508H330.569M347.515 26.3508L344.802 22.1847M398.353 26.3508L402.102 30.6705M344.802 22.1847H328.157M388.41 35.1523L392.114 39.8056M388.41 35.1523H405.993M402.102 30.6705L402.581 31.2211L405.993 35.1523M405.993 35.1523L410.033 39.8056M374.194 39.8056L374.624 40.4003L377.692 44.6411M374.194 39.8056H392.114M374.194 39.8056H356.275M392.114 39.8056L395.961 44.6411M392.114 39.8056H410.033M410.033 39.8056L414.23 44.6411M377.692 44.6411H395.961M377.692 44.6411H359.423M399.962 49.6689L395.961 44.6411M399.962 49.6689L404.125 54.9009M399.962 49.6689H418.595M395.961 44.6411H414.23M359.423 44.6411H341.153M359.423 44.6411L356.275 39.8056M414.23 44.6411L418.595 49.6689M356.275 39.8056H338.355M404.125 54.9009L408.461 60.3498M404.125 54.9009H423.136M418.595 49.6689L423.136 54.9009M423.136 54.9009L427.867 60.3498M389.056 60.3498L393.164 66.0296M389.056 60.3498H408.461M389.056 60.3498H369.65M408.461 60.3498L412.981 66.0296M408.461 60.3498H427.867M427.867 60.3498L432.797 66.0296M393.164 66.0296H412.981M393.164 66.0296H373.348M417.696 71.9551L412.981 66.0296M417.696 71.9551L422.619 78.1422M417.696 71.9551H437.941M412.981 66.0296H432.797M373.348 66.0296H353.531M373.348 66.0296L369.65 60.3498M432.797 66.0296L437.941 71.9551M369.65 60.3498H350.244M422.619 78.1422L427.765 84.6096M422.619 78.1422H443.312M437.941 71.9551L443.312 78.1422M443.312 78.1422L448.926 84.6096M406.605 84.6096L411.5 91.376M406.605 84.6096H427.765M406.605 84.6096H385.444M427.765 84.6096L433.15 91.376M427.765 84.6096H448.926M448.926 84.6096L454.799 91.376M411.5 91.376H433.15M411.5 91.376H389.85M438.789 98.4628L433.15 91.376M438.789 98.4628L444.701 105.893M438.789 98.4628H460.951M433.15 91.376H454.799M389.85 91.376H368.2M389.85 91.376L385.444 84.6096M454.799 91.376L460.951 98.4628M385.444 84.6096H364.284M444.701 105.893L450.908 113.694M444.701 105.893H467.402M460.951 98.4628L467.402 105.893M467.402 105.893L474.173 113.694M427.644 113.694L433.574 121.891M427.644 113.694H450.908M427.644 113.694H404.38M450.908 113.694L457.432 121.891M450.908 113.694H474.173M474.173 113.694L481.289 121.891M433.574 121.891H457.432M433.574 121.891H409.717M464.296 130.518L457.432 121.891M464.296 130.518L471.529 139.607M464.296 130.518H488.777M457.432 121.891H481.289M409.717 121.891H385.859M409.717 121.891L404.38 113.694M481.289 121.891L488.777 130.518M481.289 121.891H505.146M404.38 113.694H381.115M471.529 139.607L479.161 149.2M471.529 139.607H496.668M488.777 130.518L496.668 139.607M505.146 121.891H526.821M496.668 139.607L504.994 149.2M453.329 149.2L460.661 159.335M453.329 149.2H479.161M453.329 149.2H427.496M479.161 149.2L487.227 159.335M479.161 149.2H504.994M504.994 149.2L513.793 159.335M504.994 149.2H526.821M460.661 159.335H487.227M460.661 159.335H434.095M495.764 170.064L487.227 159.335M495.764 170.064L504.815 181.438M495.764 170.064H523.106M487.227 159.335H513.793M434.095 159.335H407.529M434.095 159.335L427.496 149.2M513.793 159.335L523.106 170.064M513.793 159.335H526.821M427.496 149.2H401.663M504.815 181.438L514.427 193.518M504.815 181.438H526.821M523.106 170.064H526.821M523.106 170.064L526.821 174.344M485.389 193.518L494.686 206.372M485.389 193.518H514.427M485.389 193.518H456.35M514.427 193.518L524.655 206.372M514.427 193.518H526.821M494.686 206.372H524.655M494.686 206.372H464.718M524.655 206.372L526.821 209.094M524.655 206.372H526.821M464.718 206.372H434.749M464.718 206.372L456.35 193.518M456.35 193.518H427.311M526.533 250.395H493.38M526.533 250.395H526.821M526.533 250.395L526.821 250.793M493.38 250.395H460.227M493.38 250.395L504.338 267.226M294.868 22.1847L295.539 23.7292L295.764 24.2491L296.676 26.3508M294.868 22.1847H311.513M294.868 22.1847H278.224M309.477 18.1641L307.996 15.2401L307.511 14.2817M309.477 18.1641L311.255 21.6742L311.513 22.1847M309.477 18.1641H325.831M307.511 14.2817H323.584M307.511 14.2817L305.612 10.5307M289.81 10.5307H305.612M289.81 10.5307L289.213 9.15649L288.236 6.9039M289.81 10.5307H274.008M311.513 22.1847L312.033 23.2119L313.623 26.3508M311.513 22.1847H328.157M325.831 18.1641L323.584 14.2817M325.831 18.1641L328.157 22.1847M323.584 14.2817L321.949 11.4564L321.413 10.5307M305.612 10.5307H321.413M305.612 10.5307L303.775 6.9039M328.157 22.1847L330.569 26.3508M337.215 10.5307L336.915 10.0702L334.854 6.9039M337.215 10.5307H321.413M321.413 10.5307L320.618 9.15649L319.314 6.9039M296.676 26.3508H313.623M296.676 26.3508H279.73M315.81 30.6705L313.623 26.3508M315.81 30.6705L318.079 35.1523M315.81 30.6705H333.068M313.623 26.3508H330.569M279.73 26.3508H262.784M279.73 26.3508L278.224 22.1847M330.569 26.3508L333.068 30.6705M278.224 22.1847H261.579M318.079 35.1523L319.541 38.0402L319.838 38.6256L320.436 39.8056M318.079 35.1523H335.662M333.068 30.6705L335.662 35.1523M335.662 35.1523L338.355 39.8056M302.516 39.8056L304.615 44.6411M302.516 39.8056H320.436M302.516 39.8056H284.597M320.436 39.8056L322.884 44.6411M320.436 39.8056H338.355M338.355 39.8056L341.153 44.6411M304.615 44.6411H322.884M304.615 44.6411H286.346M325.43 49.6689L323.827 46.5033L323.512 45.8792L322.884 44.6411M325.43 49.6689L328.08 54.9009M325.43 49.6689H344.063M322.884 44.6411H341.153M286.346 44.6411H268.077M286.346 44.6411L284.597 39.8056M341.153 44.6411L344.063 49.6689M284.597 39.8056H266.678M328.08 54.9009L330.839 60.3498M328.08 54.9009H347.091M344.063 49.6689L347.091 54.9009M347.091 54.9009L350.244 60.3498M311.433 60.3498L312.653 63.1597L312.962 63.8718L313.898 66.0296M311.433 60.3498H330.839M311.433 60.3498H292.028M330.839 60.3498L333.715 66.0296M330.839 60.3498H350.244M350.244 60.3498L353.531 66.0296M313.898 66.0296H333.715M313.898 66.0296H294.082M336.715 71.9551L333.715 66.0296M336.715 71.9551L339.849 78.1422M336.715 71.9551H356.961M333.715 66.0296H353.531M294.082 66.0296H274.266M294.082 66.0296L293.56 64.5873L292.028 60.3498M353.531 66.0296L356.961 71.9551M292.028 60.3498H272.622M339.849 78.1422L343.123 84.6096M339.849 78.1422H360.541M356.961 71.9551L360.541 78.1422M360.541 78.1422L364.284 84.6096M321.963 84.6096L324.9 91.376M321.963 84.6096H343.123M321.963 84.6096H300.802M343.123 84.6096L346.55 91.376M343.123 84.6096H364.284M364.284 84.6096L368.2 91.376M324.9 91.376H346.55M324.9 91.376H303.25M350.138 98.4628L346.55 91.376M350.138 98.4628L353.901 105.893M350.138 98.4628H372.301M346.55 91.376H368.2M303.25 91.376H281.6M303.25 91.376L300.802 84.6096M368.2 91.376L372.301 98.4628M300.802 84.6096H279.642M353.901 105.893L357.851 113.694M353.901 105.893H376.601M372.301 98.4628L376.601 105.893M376.601 105.893L381.115 113.694M334.586 113.694L338.145 121.891M334.586 113.694H357.851M334.586 113.694H311.322M357.851 113.694L362.002 121.891M357.851 113.694H381.115M381.115 113.694L385.859 121.891M338.145 121.891H362.002M338.145 121.891H314.287M366.37 130.518L362.002 121.891M366.37 130.518L370.973 139.607M366.37 130.518H390.852M362.002 121.891H385.859M314.287 121.891H290.43M314.287 121.891L311.322 113.694M385.859 121.891L390.852 130.518M311.322 113.694H288.058M370.973 139.607L375.83 149.2M370.973 139.607H396.112M390.852 130.518L396.112 139.607M396.112 139.607L401.663 149.2M349.997 149.2L354.397 159.335M349.997 149.2H375.83M349.997 149.2H324.164M375.83 149.2L380.963 159.335M375.83 149.2H401.663M401.663 149.2L407.529 159.335M354.397 159.335H380.963M354.397 159.335H327.83M386.395 170.064L380.963 159.335M386.395 170.064L392.155 181.438M386.395 170.064H413.738M380.963 159.335H407.529M327.83 159.335H301.264M327.83 159.335L324.164 149.2M407.529 159.335L413.738 170.064M324.164 149.2H298.332M392.155 181.438L398.272 193.518M392.155 181.438H420.32M413.738 170.064L420.32 181.438M420.32 181.438L427.311 193.518M369.233 193.518L374.812 206.372M369.233 193.518H398.272M369.233 193.518H340.194M398.272 193.518L404.781 206.372M398.272 193.518H427.311M427.311 193.518L434.749 206.372M374.812 206.372H404.781M374.812 206.372H344.843M411.72 220.075L404.781 206.372M411.72 220.075L419.134 234.717M411.72 220.075H442.68M404.781 206.372H434.749M344.843 206.372H314.875M344.843 206.372L340.194 193.518M434.749 206.372L442.68 220.075M340.194 193.518H311.155M419.134 234.717L427.073 250.395M419.134 234.717H451.153M442.68 220.075L451.153 234.717M451.153 234.717L460.227 250.395M393.92 250.395L401.225 267.226M393.92 250.395H427.073M393.92 250.395H360.767M427.073 250.395L435.596 267.226M427.073 250.395H460.227M460.227 250.395L469.967 267.226M401.225 267.226H435.596M401.225 267.226H366.854M444.768 285.34L435.596 267.226M444.768 285.34L454.667 304.889M444.768 285.34H480.449M435.596 267.226H469.967M366.854 267.226H332.483M366.854 267.226L360.767 250.395M469.967 267.226L480.449 285.34M469.967 267.226H504.338M360.767 250.395H327.613M454.667 304.889L465.384 326.052M454.667 304.889H491.763M480.449 285.34L491.763 304.889M504.338 267.226H526.821M491.763 304.889L504.01 326.052M491.763 304.889H526.821M426.757 326.052L436.734 349.037M426.757 326.052H465.384M426.757 326.052H388.131M465.384 326.052L477.023 349.037M465.384 326.052H504.01M504.01 326.052L517.312 349.037M504.01 326.052H526.821M436.734 349.037H477.023M436.734 349.037H396.445M489.709 374.09L477.023 349.037M489.709 374.09L503.59 401.503M489.709 374.09H526.821M477.023 349.037H517.312M396.445 349.037H356.156M396.445 349.037L388.131 326.052M517.312 349.037H526.821M517.312 349.037L526.821 365.469M388.131 326.052H349.505M503.59 401.503L518.844 431.626M503.59 401.503H526.821M472.58 431.626L487.014 464.882M472.58 431.626H518.844M472.58 431.626H426.317M518.844 431.626L526.821 447.38M518.844 431.626H526.821M526.821 464.881L487.014 464.882H438.345M438.345 464.882H389.676M438.345 464.882L426.317 431.626M426.317 431.626H380.054M228.289 22.1847L228.364 22.6973L228.438 23.2119L228.513 23.7292L228.588 24.2491L228.816 25.8216L228.892 26.3508M228.289 22.1847H244.934M228.289 22.1847H211.645M244.062 18.1641L243.427 15.2401L243.219 14.2817M244.062 18.1641L244.603 20.6603L244.934 22.1847M244.062 18.1641H260.415M243.219 14.2817H259.292M243.219 14.2817L242.606 11.4564L242.405 10.5307M226.603 10.5307L226.537 10.0702L226.274 8.24944L226.078 6.9039M226.603 10.5307H242.405M226.603 10.5307H210.802M244.934 22.1847L245.045 22.6973L245.157 23.2119L245.269 23.7292L245.382 24.2491L245.838 26.3508M244.934 22.1847H261.579M260.415 18.1641L259.569 15.2401L259.292 14.2817M260.415 18.1641L261.579 22.1847M259.292 14.2817L258.745 12.3902L258.34 10.9926L258.207 10.5307M242.405 10.5307L242.305 10.0702L242.107 9.15649L241.91 8.24944L241.812 7.79893L241.618 6.9039M242.405 10.5307H258.207M261.579 22.1847L262.479 25.295L262.784 26.3508M274.008 10.5307L273.021 7.79893L272.697 6.9039M274.008 10.5307H258.207M258.207 10.5307L257.287 7.35042L257.157 6.9039M228.892 26.3508H245.838M228.892 26.3508H211.946M246.776 30.6705L245.838 26.3508M246.776 30.6705L247.748 35.1523M246.776 30.6705H264.034M245.838 26.3508H262.784M211.946 26.3508H195M211.946 26.3508L211.645 22.1847M262.784 26.3508L264.034 30.6705M211.645 22.1847H195M247.748 35.1523L247.997 36.2989L248.375 38.0402L248.758 39.8056M247.748 35.1523H265.331M264.034 30.6705L264.194 31.2211L265.331 35.1523M265.331 35.1523L265.496 35.7243L265.663 36.2989L265.83 36.8769L266.678 39.8056M230.839 39.8056L231.538 44.6411M230.839 39.8056H248.758M230.839 39.8056H212.919M248.758 39.8056L249.808 44.6411M248.758 39.8056H266.678M266.678 39.8056L267.722 43.4144L267.899 44.0264L268.077 44.6411M231.538 44.6411H249.808M231.538 44.6411H213.269M250.899 49.6689L251.038 50.3116L251.178 50.957L251.319 51.6064L252.034 54.9009M250.899 49.6689L250.348 47.13L250.212 46.5033L250.076 45.8792L249.808 44.6411M250.899 49.6689H269.532M249.808 44.6411H268.077M213.269 44.6411H195M213.269 44.6411L212.919 39.8056M268.077 44.6411L269.532 49.6689M212.919 39.8056H195M252.034 54.9009L253.066 59.6563L253.217 60.3498M252.034 54.9009H271.045M269.532 49.6689L269.905 50.957L271.045 54.9009M271.045 54.9009L271.629 56.9179L272.622 60.3498M233.811 60.3498L234.218 63.1597L234.321 63.8718L234.633 66.0296M233.811 60.3498H253.217M233.811 60.3498H214.406M253.217 60.3498L254.449 66.0296M253.217 60.3498H272.622M272.622 60.3498L274.266 66.0296M234.633 66.0296H254.449M234.633 66.0296H214.816M255.735 71.9551L254.449 66.0296M255.735 71.9551L257.078 78.1422M255.735 71.9551H275.98M254.449 66.0296H274.266M214.816 66.0296H195M214.816 66.0296L214.712 64.5873L214.507 61.7474L214.406 60.3498M274.266 66.0296L275.98 71.9551M214.406 60.3498H195M257.078 78.1422L258.124 82.9657L258.482 84.6096M257.078 78.1422H277.771M275.98 71.9551L277.771 78.1422M277.771 78.1422L278.696 81.3398L279.642 84.6096M237.321 84.6096L238.3 91.376M237.321 84.6096H258.482M237.321 84.6096H216.161M258.482 84.6096L259.95 91.376M258.482 84.6096H279.642M279.642 84.6096L281.6 91.376M238.3 91.376H259.95M238.3 91.376H216.65M261.488 98.4628L261.096 96.66L259.95 91.376M261.488 98.4628L263.1 105.893M261.488 98.4628H283.651M259.95 91.376H281.6M216.65 91.376H195M216.65 91.376L216.161 84.6096M281.6 91.376L283.651 98.4628M216.161 84.6096H195M263.1 105.893L264.793 113.694M263.1 105.893H285.8M283.651 98.4628L285.8 105.893M285.8 105.893L288.058 113.694M241.529 113.694L242.715 121.891M241.529 113.694H264.793M241.529 113.694H218.264M264.793 113.694L266.572 121.891M264.793 113.694H288.058M288.058 113.694L290.43 121.891M242.715 121.891H266.572M242.715 121.891H218.857M268.444 130.518L266.572 121.891M268.444 130.518L270.417 139.607M268.444 130.518H292.926M266.572 121.891H290.43M218.857 121.891H195M218.857 121.891L218.337 114.696L218.264 113.694M290.43 121.891L292.926 130.518M218.264 113.694H195M270.417 139.607L272.499 149.2M270.417 139.607H295.556M292.926 130.518L294.885 137.29L295.556 139.607M295.556 139.607L298.332 149.2M246.666 149.2L248.132 159.335M246.666 149.2H272.499M246.666 149.2H220.833M272.499 149.2L274.698 159.335M272.499 149.2H298.332M298.332 149.2L301.264 159.335M248.132 159.335H274.698M248.132 159.335H221.566M277.027 170.064L274.698 159.335M277.027 170.064L279.495 181.438M277.027 170.064H304.369M274.698 159.335H301.264M221.566 159.335H195M221.566 159.335L220.833 149.2M301.264 159.335L304.369 170.064M220.833 149.2H195M279.495 181.438L282.117 193.518M279.495 181.438H307.66M304.369 170.064L307.66 181.438M307.66 181.438L311.155 193.518M253.078 193.518L254.937 206.372M253.078 193.518H282.117M253.078 193.518H224.039M282.117 193.518L284.906 206.372M282.117 193.518H311.155M311.155 193.518L314.875 206.372M254.937 206.372H284.906M254.937 206.372H224.969M287.88 220.075L284.906 206.372M287.88 220.075L291.057 234.717M287.88 220.075H318.84M284.906 206.372H314.875M224.969 206.372H195M224.969 206.372L224.039 193.518M314.875 206.372L318.84 220.075M224.039 193.518H195M291.057 234.717L294.46 250.395M291.057 234.717H323.076M318.84 220.075L323.076 234.717M323.076 234.717L327.613 250.395M261.307 250.395L263.742 267.226M261.307 250.395H294.46M261.307 250.395H228.153M294.46 250.395L298.112 267.226M294.46 250.395H327.613M327.613 250.395L332.483 267.226M263.742 267.226H298.112M263.742 267.226H229.371M302.043 285.34L298.112 267.226M302.043 285.34L306.286 304.889M302.043 285.34H337.725M298.112 267.226H332.483M229.371 267.226H195M229.371 267.226L228.153 250.395M332.483 267.226L337.725 285.34M228.153 250.395H195M306.286 304.889L310.879 326.052M306.286 304.889H343.381M337.725 285.34L343.381 304.889M343.381 304.889L349.505 326.052M272.252 326.052L275.578 349.037M272.252 326.052H310.879M272.252 326.052H233.626M310.879 326.052L315.867 349.037M310.879 326.052H349.505M349.505 326.052L356.156 349.037M275.578 349.037H315.867M275.578 349.037H235.289M321.304 374.09L315.867 349.037M321.304 374.09L327.253 401.503M321.304 374.09H363.405M315.867 349.037H356.156M235.289 349.037H195M235.289 349.037L233.626 326.052M356.156 349.037L363.405 374.09M233.626 326.052H195M327.253 401.503L333.79 431.626M327.253 401.503H371.337M363.405 374.09L371.337 401.503M371.337 401.503L380.054 431.626M287.527 431.626L292.338 464.882M287.527 431.626H333.79M287.527 431.626H241.263M333.79 431.626L341.007 464.882M333.79 431.626H380.054M380.054 431.626L389.676 464.882M341.007 464.882H292.338M341.007 464.882H389.676M292.338 464.882H243.669M243.669 464.882H195M243.669 464.882L241.263 431.626M241.263 431.626H195M161.711 22.1847L161.636 22.6973L161.562 23.2119L161.487 23.7292L161.412 24.2491L161.261 25.295L161.184 25.8216L161.108 26.3508M161.711 22.1847H178.355M161.711 22.1847H145.066M178.646 18.1641L178.927 14.2817M178.646 18.1641L178.355 22.1847M178.646 18.1641H195M178.927 14.2817L178.961 13.8058L178.996 13.3319L179.03 12.86L179.198 10.5307M178.927 14.2817H195M163.397 10.5307L163.463 10.0702L163.727 8.24944L163.921 6.9039M163.397 10.5307H179.198M163.397 10.5307H147.595M178.355 22.1847L178.318 22.6973L178.281 23.2119L178.243 23.7292L178.054 26.3508M178.355 22.1847H195M195 18.1641V14.2817M195 18.1641V22.1847M195 14.2817V10.5307M179.198 10.5307H195M179.198 10.5307L179.298 9.15649L179.331 8.70196L179.461 6.9039M195 22.1847V26.3508M210.802 10.5307L210.702 9.15649L210.669 8.70196L210.637 8.24944L210.604 7.79893L210.572 7.35042L210.539 6.9039M210.802 10.5307H195M195 10.5307V6.9039M161.108 26.3508H178.054M161.108 26.3508H144.162M177.741 30.6705L177.701 31.2211L177.662 31.7751L177.417 35.1523M177.741 30.6705L178.054 26.3508M177.741 30.6705H195M178.054 26.3508H195M144.162 26.3508H127.216M144.162 26.3508L144.391 25.295L144.505 24.771L144.618 24.2491L144.731 23.7292L144.843 23.2119L144.955 22.6973L145.066 22.1847M195 26.3508V30.6705M145.066 22.1847H128.421M177.417 35.1523L177.081 39.8056M177.417 35.1523H195M195 30.6705V35.1523M195 35.1523V39.8056M159.161 39.8056L158.462 44.6411M159.161 39.8056H177.081M159.161 39.8056H141.242M177.081 39.8056L176.731 44.6411M177.081 39.8056H195M195 39.8056V44.6411M158.462 44.6411H176.731M158.462 44.6411H140.192M176.367 49.6689L176.731 44.6411M176.367 49.6689L175.989 54.9009M176.367 49.6689H195M176.731 44.6411H195M140.192 44.6411H121.923M140.192 44.6411L141.242 39.8056M195 44.6411V49.6689M141.242 39.8056H123.322M175.989 54.9009L175.843 56.9179L175.695 58.9662L175.594 60.3498M175.989 54.9009H195M195 49.6689V54.9009M195 54.9009V60.3498M156.189 60.3498L155.782 63.1597L155.68 63.8718L155.367 66.0296M156.189 60.3498H175.594M156.189 60.3498H136.783M175.594 60.3498L175.493 61.7474L175.288 64.5873L175.184 66.0296M175.594 60.3498H195M195 60.3498V66.0296M155.367 66.0296H175.184M155.367 66.0296H135.551M174.755 71.9551L174.809 71.2002L175.184 66.0296M174.755 71.9551L174.307 78.1422M174.755 71.9551H195M175.184 66.0296H195M135.551 66.0296H115.734M135.551 66.0296L136.783 60.3498M195 66.0296V71.9551M136.783 60.3498H117.378M174.307 78.1422L173.839 84.6096M174.307 78.1422H195M195 71.9551V78.1422M195 78.1422V84.6096M152.679 84.6096L151.7 91.376M152.679 84.6096H173.839M152.679 84.6096H131.518M173.839 84.6096L173.35 91.376M173.839 84.6096H195M195 84.6096V91.376M151.7 91.376H173.35M151.7 91.376H130.05M172.837 98.4628L173.35 91.376M172.837 98.4628L172.3 105.893M172.837 98.4628H195M173.35 91.376H195M130.05 91.376H108.4M130.05 91.376L131.518 84.6096M195 91.376V98.4628M131.518 84.6096H110.358M172.3 105.893L171.736 113.694M172.3 105.893H195M195 98.4628V105.893M195 105.893V113.694M148.471 113.694L147.285 121.891M148.471 113.694H171.736M148.471 113.694H125.207M171.736 113.694L171.143 121.891M171.736 113.694H195M195 113.694V121.891M147.285 121.891H171.143M147.285 121.891H123.428M170.519 130.518L171.143 121.891M170.519 130.518L169.861 139.607M170.519 130.518H195M171.143 121.891H195M123.428 121.891H99.5703M123.428 121.891L125.207 113.694M195 121.891V130.518M125.207 113.694H101.942M169.861 139.607L169.167 149.2M169.861 139.607H195M195 130.518V139.607M195 139.607V149.2M143.334 149.2L141.868 159.335M143.334 149.2H169.167M143.334 149.2H117.501M169.167 149.2L168.434 159.335M169.167 149.2H195M195 149.2V159.335M141.868 159.335H168.434M141.868 159.335H115.302M167.658 170.064L168.434 159.335M167.658 170.064L166.835 181.438M167.658 170.064H195M168.434 159.335H195M115.302 159.335H88.7356M115.302 159.335L117.501 149.2M195 159.335V170.064M117.501 149.2H91.6684M166.835 181.438L165.961 193.518M166.835 181.438H195M195 170.064V181.438M195 181.438V193.518M136.922 193.518L135.063 206.372M136.922 193.518H165.961M136.922 193.518H107.883M165.961 193.518L165.031 206.372M165.961 193.518H195M195 193.518V206.372M135.063 206.372H165.031M135.063 206.372H105.094M164.04 220.075L165.031 206.372M164.04 220.075L162.981 234.717M164.04 220.075H195M165.031 206.372H195M105.094 206.372H75.1254M105.094 206.372L107.883 193.518M195 206.372V220.075M107.883 193.518H78.8446M162.981 234.717L161.847 250.395M162.981 234.717H195M195 220.075V234.717M195 234.717V250.395M128.693 250.395L126.258 267.226M128.693 250.395H161.847M128.693 250.395H95.54M161.847 250.395L160.629 267.226M161.847 250.395H195M195 250.395V267.226M126.258 267.226H160.629M126.258 267.226H91.8876M159.319 285.34L160.629 267.226M159.319 285.34L157.905 304.889M159.319 285.34H195M160.629 267.226H195M91.8876 267.226H57.5168M91.8876 267.226L95.54 250.395M195 267.226V285.34M95.54 250.395H62.3866M157.905 304.889L156.374 326.052M157.905 304.889H195M195 285.34V304.889M195 304.889V326.052M117.748 326.052L114.422 349.037M117.748 326.052H156.374M117.748 326.052H79.1211M156.374 326.052L154.711 349.037M156.374 326.052H195M195 326.052V349.037M114.422 349.037H154.711M114.422 349.037H74.1331M152.899 374.09L154.711 349.037M152.899 374.09L150.916 401.503M152.899 374.09H195M154.711 349.037H195M74.1331 349.037H33.8441M74.1331 349.037L79.1211 326.052M195 349.037V374.09M79.1211 326.052H40.495M150.916 401.503L148.737 431.626M150.916 401.503H195M195 374.09V401.503M195 401.503V431.626M102.473 431.626L97.662 464.882M102.473 431.626H148.737M102.473 431.626H56.2099M148.737 431.626L146.331 464.882M148.737 431.626H195M195 431.626V464.882M146.331 464.882H97.662M146.331 464.882H195M97.662 464.882H48.9928M48.9928 464.882H0.323555M48.9928 464.882L56.2099 431.626M56.2099 431.626H9.94637M95.1318 22.1847L94.2359 24.2491L93.3237 26.3508M95.1318 22.1847H111.776M95.1318 22.1847H78.4872M113.231 18.1641L114.635 14.2817M113.231 18.1641L111.776 22.1847M113.231 18.1641H129.585M114.635 14.2817H130.708M114.635 14.2817L115.657 11.4564L115.992 10.5307M100.19 10.5307H115.992M100.19 10.5307L100.787 9.15649L101.764 6.9039M100.19 10.5307H84.3884M111.776 22.1847L110.27 26.3508M111.776 22.1847H128.421M129.585 18.1641L130.708 14.2817M129.585 18.1641L128.421 22.1847M130.708 14.2817L131.255 12.3902L131.66 10.9926L131.793 10.5307M115.992 10.5307H131.793M115.992 10.5307L116.979 7.79893L117.303 6.9039M128.421 22.1847L127.521 25.295L127.216 26.3508M147.595 10.5307L147.695 10.0702L147.893 9.15649L148.188 7.79893L148.382 6.9039M147.595 10.5307H131.793M131.793 10.5307L131.926 10.0702L132.191 9.15649L132.843 6.9039M93.3237 26.3508H110.27M93.3237 26.3508H76.3773M108.707 30.6705L108.906 30.1218L109.103 29.5752L109.884 27.4154L110.27 26.3508M108.707 30.6705L107.497 34.0156L107.086 35.1523M108.707 30.6705H125.966M110.27 26.3508H127.216M76.3773 26.3508H59.4313M76.3773 26.3508L77.9666 23.2119L78.4872 22.1847M127.216 26.3508L125.966 30.6705M78.4872 22.1847H61.8422M107.086 35.1523L106.879 35.7243L106.671 36.2989L106.042 38.0402L105.83 38.6256L105.403 39.8056M107.086 35.1523H124.669M125.966 30.6705L125.806 31.2211L124.669 35.1523M124.669 35.1523L124.504 35.7243L124.337 36.2989L124.17 36.8769L123.322 39.8056M87.4837 39.8056L85.3849 44.6411M87.4837 39.8056H105.403M87.4837 39.8056H69.5643M105.403 39.8056L103.654 44.6411M105.403 39.8056H123.322M123.322 39.8056L121.923 44.6411M85.3849 44.6411H103.654M85.3849 44.6411H67.1157M101.836 49.6689L103.654 44.6411M101.836 49.6689L99.9432 54.9009M101.836 49.6689H120.468M103.654 44.6411H121.923M67.1157 44.6411H48.8465M67.1157 44.6411L69.5643 39.8056M121.923 44.6411L120.468 49.6689M69.5643 39.8056H51.6446M99.9432 54.9009L97.9723 60.3498M99.9432 54.9009H118.955M120.468 49.6689L120.095 50.957L118.955 54.9009M118.955 54.9009L118.371 56.9179L117.778 58.9662L117.378 60.3498M78.5667 60.3498L77.3469 63.1597L76.1015 66.0296M78.5667 60.3498H97.9723M78.5667 60.3498H59.161M97.9723 60.3498L95.9178 66.0296M97.9723 60.3498H117.378M117.378 60.3498L115.734 66.0296M76.1015 66.0296H95.9178M76.1015 66.0296H56.2852M93.7748 71.9551L95.9178 66.0296M93.7748 71.9551L91.5368 78.1422M93.7748 71.9551H114.02M95.9178 66.0296H115.734M56.2852 66.0296H36.4685M56.2852 66.0296L59.161 60.3498M115.734 66.0296L114.02 71.9551M59.161 60.3498H39.7557M91.5368 78.1422L90.9616 79.732L89.1978 84.6096M91.5368 78.1422H112.229M114.02 71.9551L112.229 78.1422M112.229 78.1422L112 78.9351L111.304 81.3398L110.358 84.6096M68.0372 84.6096L65.1003 91.376M68.0372 84.6096H89.1978M68.0372 84.6096H46.8767M89.1978 84.6096L86.7502 91.376M89.1978 84.6096H110.358M110.358 84.6096L108.4 91.376M65.1003 91.376H86.7502M65.1003 91.376H43.4503M84.1869 98.4628L85.8032 93.995L86.7502 91.376M84.1869 98.4628L81.4991 105.893M84.1869 98.4628H106.349M86.7502 91.376H108.4M43.4503 91.376H21.8003M43.4503 91.376L46.8767 84.6096M108.4 91.376L106.349 98.4628M46.8767 84.6096H25.7162M81.4991 105.893L78.678 113.694M81.4991 105.893H104.2M106.349 98.4628L104.2 105.893M104.2 105.893L101.942 113.694M55.4135 113.694L51.8554 121.891M55.4135 113.694H78.678M55.4135 113.694H32.1494M78.678 113.694L75.713 121.891M78.678 113.694H101.942M101.942 113.694L99.5703 121.891M51.8554 121.891H75.713M51.8554 121.891H27.9981M72.5929 130.518L75.713 121.891M72.5929 130.518L69.3051 139.607M72.5929 130.518H97.0744M75.713 121.891H99.5703M27.9981 121.891H4.14089M27.9981 121.891L32.1494 113.694M99.5703 121.891L97.0744 130.518M32.1494 113.694H8.88488M69.3051 139.607L65.8358 149.2M69.3051 139.607H94.444M97.0744 130.518L94.444 139.607M94.444 139.607L91.6684 149.2M40.0028 149.2L35.6034 159.335M40.0028 149.2H65.8358M40.0028 149.2H14.1698M65.8358 149.2L62.1695 159.335M65.8358 149.2H91.6684M91.6684 149.2L88.7356 159.335M35.6034 159.335H62.1695M35.6034 159.335H9.03732M58.2889 170.064L62.1695 159.335M58.2889 170.064L54.175 181.438M58.2889 170.064H85.6314M62.1695 159.335H88.7356M9.03732 159.335H-17.5288M9.03732 159.335L14.1698 149.2M88.7356 159.335L85.6314 170.064M14.1698 149.2H-11.6628M54.175 181.438L49.8057 193.518M54.175 181.438H82.3401M85.6314 170.064L82.3401 181.438M82.3401 181.438L78.8446 193.518M20.7669 193.518L15.1881 206.372M20.7669 193.518H49.8057M20.7669 193.518H-8.272M49.8057 193.518L45.1568 206.372M49.8057 193.518H78.8446M78.8446 193.518L75.1254 206.372M15.1881 206.372H45.1568M15.1881 206.372H-14.7805M40.2002 220.075L45.1568 206.372M40.2002 220.075L34.9042 234.717M40.2002 220.075H71.1602M45.1568 206.372H75.1254M-14.7805 206.372H-44.7492M-14.7805 206.372L-8.272 193.518M75.1254 206.372L71.1602 220.075M-8.272 193.518H-37.3109M34.9042 234.717L29.2335 250.395M34.9042 234.717H66.9235M71.1602 220.075L66.9235 234.717M66.9235 234.717L62.3866 250.395M-3.91996 250.395L-11.2249 267.226M-3.91996 250.395H29.2335M-3.91996 250.395H-37.0734M29.2335 250.395L23.1459 267.226M29.2335 250.395H62.3866M62.3866 250.395L57.5168 267.226M-11.2249 267.226H23.1459M-11.2249 267.226H-45.5957M16.5942 285.34L23.1459 267.226M16.5942 285.34L9.5233 304.889M16.5942 285.34H52.2754M23.1459 267.226H57.5168M-45.5957 267.226H-79.9665M-45.5957 267.226L-37.0734 250.395M57.5168 267.226L52.2754 285.34M-37.0734 250.395H-70.2268M9.5233 304.889L1.8686 326.052M9.5233 304.889H46.6185M52.2754 285.34L46.6185 304.889M46.6185 304.889L40.495 326.052M-36.7575 326.052L-46.7339 349.037M-36.7575 326.052H1.8686M-36.7575 326.052H-75.3839M1.8686 326.052L-6.44491 349.037M1.8686 326.052H40.495M40.495 326.052L33.8441 349.037M-46.7339 349.037H-6.44491M-46.7339 349.037H-87.0229M-15.5064 374.09L-6.44491 349.037M-15.5064 374.09L-25.4216 401.503M-15.5064 374.09H26.5948M-6.44491 349.037H33.8441M-87.0229 349.037H-127.312M-87.0229 349.037L-75.3839 326.052M33.8441 349.037L26.5948 374.09M-75.3839 326.052H-114.01M-25.4216 401.503L-36.3168 431.626M-25.4216 401.503H18.6629M26.5948 374.09L18.6629 401.503M18.6629 401.503L9.94637 431.626M-82.5803 431.626L-97.0145 464.882M-82.5803 431.626H-36.3168M-82.5803 431.626H-128.844M-36.3168 431.626L-48.3453 464.882M-36.3168 431.626H9.94637M9.94637 431.626L0.323555 464.882M-136.821 464.881L-97.0145 464.882H-48.3453M-48.3453 464.882H0.323555M-128.844 431.626L-136.821 447.38M-128.844 431.626H-136.821M28.5529 22.1847L25.5392 26.3508M28.5529 22.1847H45.1976M28.5529 22.1847H11.9083M47.8151 18.1641L50.3429 14.2817M47.8151 18.1641L45.1976 22.1847M47.8151 18.1641H64.1691M50.3429 14.2817H66.4158M50.3429 14.2817L52.7852 10.5307M36.9832 10.5307H52.7852M36.9832 10.5307L37.9777 9.15649L39.607 6.9039M36.9832 10.5307H21.1816M45.1976 22.1847L42.4853 26.3508M45.1976 22.1847H61.8422M64.1691 18.1641L66.4158 14.2817M64.1691 18.1641L61.8422 22.1847M66.4158 14.2817L68.0511 11.4564L68.5868 10.5307M52.7852 10.5307L53.0845 10.0702L55.1463 6.9039M52.7852 10.5307H68.5868M61.8422 22.1847L59.4313 26.3508M84.3884 10.5307L86.2248 6.9039M84.3884 10.5307H68.5868M68.5868 10.5307L69.3822 9.15649L70.6856 6.9039M25.5392 26.3508H42.4853M25.5392 26.3508H8.59316M39.673 30.6705L42.4853 26.3508M39.673 30.6705L36.7551 35.1523M39.673 30.6705H56.9316M42.4853 26.3508H59.4313M8.59316 26.3508H-8.35289M8.59316 26.3508L11.9083 22.1847M59.4313 26.3508L56.9316 30.6705M11.9083 22.1847H-4.73638M36.7551 35.1523L36.0082 36.2989L33.7252 39.8056M36.7551 35.1523H54.3378M56.9316 30.6705L54.3378 35.1523M54.3378 35.1523L51.6446 39.8056M15.8058 39.8056L15.3761 40.4003L12.3082 44.6411M15.8058 39.8056H33.7252M15.8058 39.8056H-2.1136M33.7252 39.8056L30.5774 44.6411M33.7252 39.8056H51.6446M51.6446 39.8056L51.301 40.4003L48.8465 44.6411M12.3082 44.6411H30.5774M12.3082 44.6411H-5.961M27.3041 49.6689L30.5774 44.6411M27.3041 49.6689L23.8977 54.9009M27.3041 49.6689H45.9369M30.5774 44.6411H48.8465M-5.961 44.6411H-24.2302M-5.961 44.6411L-2.1136 39.8056M48.8465 44.6411L45.9369 49.6689M-2.1136 39.8056H-20.033M23.8977 54.9009L20.35 60.3498M23.8977 54.9009H42.909M45.9369 49.6689L42.909 54.9009M42.909 54.9009L39.7557 60.3498M0.944682 60.3498L-3.16402 66.0296M0.944682 60.3498H20.35M0.944682 60.3498H-18.461M20.35 60.3498L16.6523 66.0296M20.35 60.3498H39.7557M39.7557 60.3498L36.4685 66.0296M-3.16402 66.0296H16.6523M-3.16402 66.0296H-22.9807M12.7945 71.9551L16.6523 66.0296M12.7945 71.9551L8.76598 78.1422M12.7945 71.9551H33.0394M16.6523 66.0296H36.4685M-22.9807 66.0296H-42.797M-22.9807 66.0296L-18.461 60.3498M36.4685 66.0296L33.0394 71.9551M-18.461 60.3498H-37.8667M8.76598 78.1422L4.55566 84.6096M8.76598 78.1422H29.4588M33.0394 71.9551L29.4588 78.1422M29.4588 78.1422L25.7162 84.6096M-16.6049 84.6096L-21.4996 91.376M-16.6049 84.6096H4.55566M-16.6049 84.6096H-37.7654M4.55566 84.6096L0.150384 91.376M4.55566 84.6096H25.7162M25.7162 84.6096L21.8003 91.376M-21.4996 91.376H0.150384M-21.4996 91.376H-43.1495M-4.46366 98.4628L0.150384 91.376M-4.46366 98.4628L-9.30134 105.893M-4.46366 98.4628H17.6989M0.150384 91.376H21.8003M-43.1495 91.376H-64.7995M-43.1495 91.376L-37.7654 84.6096M21.8003 91.376L17.6989 98.4628M-37.7654 84.6096H-58.9259M-9.30134 105.893L-14.3796 113.694M-9.30134 105.893H13.3987M17.6989 98.4628L13.3987 105.893M13.3987 105.893L8.88488 113.694M-37.6441 113.694L-43.574 121.891M-37.6441 113.694H-14.3796M-37.6441 113.694H-60.9082M-14.3796 113.694L-19.7167 121.891M-14.3796 113.694H8.88488M8.88488 113.694L4.14089 121.891M-43.574 121.891H-19.7167M-43.574 121.891H-67.4316M-25.3331 130.518L-19.7167 121.891M-25.3331 130.518L-31.251 139.607M-25.3331 130.518H-0.851643M-19.7167 121.891H4.14089M-67.4316 121.891H-91.2888M-67.4316 121.891L-60.9082 113.694M4.14089 121.891L-0.851643 130.518M-60.9082 113.694H-84.1727M-31.251 139.607L-37.4958 149.2M-31.251 139.607H-6.11206M-0.851643 130.518L-6.11206 139.607M-6.11206 139.607L-11.6628 149.2M-63.3288 149.2L-70.661 159.335M-63.3288 149.2H-37.4958M-63.3288 149.2H-89.1614M-37.4958 149.2L-44.0949 159.335M-37.4958 149.2H-11.6628M-11.6628 149.2L-17.5288 159.335M-70.661 159.335H-44.0949M-70.661 159.335H-97.2271M-51.0797 170.064L-44.0949 159.335M-51.0797 170.064L-58.4849 181.438M-51.0797 170.064H-23.7376M-44.0949 159.335H-17.5288M-97.2271 159.335H-123.793M-97.2271 159.335L-89.1614 149.2M-17.5288 159.335L-23.7376 170.064M-89.1614 149.2H-114.994M-58.4849 181.438L-66.3497 193.518M-58.4849 181.438H-30.3198M-23.7376 170.064L-30.3198 181.438M-30.3198 181.438L-37.3109 193.518M-95.3886 193.518L-104.686 206.372M-95.3886 193.518H-66.3497M-95.3886 193.518H-124.427M-66.3497 193.518L-74.7178 206.372M-66.3497 193.518H-37.3109M-37.3109 193.518L-44.7492 206.372M-104.686 206.372H-74.7178M-104.686 206.372H-134.655M-83.64 220.075L-74.7178 206.372M-83.64 220.075L-93.1723 234.717M-83.64 220.075H-52.6801M-74.7178 206.372H-44.7492M-134.655 206.372L-124.427 193.518M-134.655 206.372H-136.821M-134.655 206.372L-136.821 209.094M-44.7492 206.372L-52.6801 220.075M-124.427 193.518H-136.821M-93.1723 234.717L-103.38 250.395M-93.1723 234.717H-61.1532M-52.6801 220.075L-61.1532 234.717M-61.1532 234.717L-70.2268 250.395M-136.533 250.395H-103.38M-136.533 250.395H-136.821M-136.533 250.395L-136.821 250.793M-103.38 250.395L-114.338 267.226M-103.38 250.395H-70.2268M-70.2268 250.395L-79.9665 267.226M-126.13 285.34L-114.338 267.226M-126.13 285.34H-90.4493M-126.13 285.34H-136.821M-126.13 285.34L-136.821 301.761M-114.338 267.226H-79.9665M-114.338 267.226H-136.821M-79.9665 267.226L-90.4493 285.34M-90.4493 285.34L-101.763 304.889M-101.763 304.889L-114.01 326.052M-101.763 304.889H-136.821M-114.01 326.052L-127.312 349.037M-114.01 326.052H-136.821M-127.312 349.037H-136.821M-127.312 349.037L-136.821 365.469M-38.026 22.1847L-42.245 26.3508M-38.026 22.1847H-21.381M-38.026 22.1847H-54.6706M-17.6003 18.1641L-13.9493 14.2817M-17.6003 18.1641L-21.381 22.1847M-17.6003 18.1641H-1.24638M-13.9493 14.2817H2.12368M-13.9493 14.2817L-10.4216 10.5307M-26.2232 10.5307H-10.4216M-26.2232 10.5307L-22.5503 6.9039M-26.2232 10.5307H-42.0248M-21.381 22.1847L-25.2989 26.3508M-21.381 22.1847H-4.73638M-1.24638 18.1641L2.12368 14.2817M-1.24638 18.1641L-4.73638 22.1847M2.12368 14.2817L5.38003 10.5307M-10.4216 10.5307L-9.98917 10.0702L-7.01108 6.9039M-10.4216 10.5307H5.38003M-4.73638 22.1847L-8.35289 26.3508M21.1816 10.5307L24.0674 6.9039M21.1816 10.5307H5.38003M5.38003 10.5307L5.77925 10.0702L8.52818 6.9039M-42.245 26.3508H-25.2989M-42.245 26.3508H-59.191M-29.3613 30.6705L-25.2989 26.3508M-29.3613 30.6705L-33.5761 35.1523M-29.3613 30.6705H-12.1025M-25.2989 26.3508H-8.35289M-59.191 26.3508H-76.1371M-59.191 26.3508L-54.6706 22.1847M-8.35289 26.3508L-12.1025 30.6705M-54.6706 22.1847H-71.3153M-33.5761 35.1523L-37.9524 39.8056M-33.5761 35.1523H-15.9934M-12.1025 30.6705L-12.5812 31.2211L-15.9934 35.1523M-15.9934 35.1523L-20.033 39.8056M-55.8718 39.8056L-60.7686 44.6411M-55.8718 39.8056H-37.9524M-55.8718 39.8056H-73.7911M-37.9524 39.8056L-42.4994 44.6411M-37.9524 39.8056H-20.033M-20.033 39.8056L-24.2302 44.6411M-60.7686 44.6411H-42.4994M-60.7686 44.6411H-79.0377M-47.2275 49.6689L-42.4994 44.6411M-47.2275 49.6689L-52.1478 54.9009M-47.2275 49.6689H-28.5947M-42.4994 44.6411H-24.2302M-79.0377 44.6411H-97.3069M-79.0377 44.6411L-73.7911 39.8056M-24.2302 44.6411L-28.5947 49.6689M-73.7911 39.8056H-91.7105M-52.1478 54.9009L-57.272 60.3498M-52.1478 54.9009H-33.1365M-28.5947 49.6689L-33.1365 54.9009M-33.1365 54.9009L-37.8667 60.3498M-76.6776 60.3498L-82.4299 66.0296M-76.6776 60.3498H-57.272M-76.6776 60.3498H-96.0833M-57.272 60.3498L-62.6133 66.0296M-57.272 60.3498H-37.8667M-37.8667 60.3498L-42.797 66.0296M-82.4299 66.0296H-62.6133M-82.4299 66.0296H-102.246M-68.1858 71.9551L-62.6133 66.0296M-68.1858 71.9551L-74.0044 78.1422M-68.1858 71.9551H-47.9405M-62.6133 66.0296H-42.797M-102.246 66.0296H-122.063M-102.246 66.0296L-96.0833 60.3498M-42.797 66.0296L-47.9405 71.9551M-96.0833 60.3498H-115.489M-74.0044 78.1422L-80.0864 84.6096M-74.0044 78.1422H-53.3119M-47.9405 71.9551L-53.3119 78.1422M-53.3119 78.1422L-58.9259 84.6096M-101.247 84.6096L-108.099 91.376M-101.247 84.6096H-80.0864M-101.247 84.6096H-122.407M-80.0864 84.6096L-86.4494 91.376M-80.0864 84.6096H-58.9259M-58.9259 84.6096L-64.7995 91.376M-108.099 91.376H-86.4494M-93.1142 98.4628L-86.4494 91.376M-93.1142 98.4628L-100.102 105.893M-93.1142 98.4628H-70.9513M-86.4494 91.376H-64.7995M-64.7995 91.376L-70.9513 98.4628M-122.407 84.6096H-136.821M-100.102 105.893L-107.437 113.694M-100.102 105.893H-77.4018M-70.9513 98.4628L-77.4018 105.893M-77.4018 105.893L-84.1727 113.694M-130.702 113.694H-107.437M-130.702 113.694H-136.821M-130.702 113.694L-136.821 119.736M-107.437 113.694L-115.146 121.891M-107.437 113.694H-84.1727M-84.1727 113.694L-91.2888 121.891M-123.259 130.518L-115.146 121.891M-123.259 130.518L-131.807 139.607M-123.259 130.518H-98.7773M-123.259 130.518H-136.821M-115.146 121.891H-91.2888M-115.146 121.891H-136.821M-91.2888 121.891L-98.7773 130.518M-136.889 119.803L-136.821 119.736M-131.807 139.607H-106.668M-131.807 139.607H-136.821M-131.807 139.607L-136.821 144.939M-98.7773 130.518L-106.668 139.607M-106.668 139.607L-114.994 149.2M-114.994 149.2L-123.793 159.335M-114.994 149.2H-136.821M-133.106 170.064L-123.793 159.335M-133.106 170.064H-136.821M-133.106 170.064L-136.821 174.343M-123.793 159.335H-136.821M-104.605 22.1847L-110.029 26.3508M-104.605 22.1847H-87.9599M-104.605 22.1847H-121.25M-83.0158 18.1641L-78.2413 14.2817M-83.0158 18.1641L-87.9599 22.1847M-83.0158 18.1641H-66.6618M-78.2413 14.2817H-62.1684M-78.2413 14.2817L-73.6283 10.5307M-89.43 10.5307H-73.6283M-89.43 10.5307L-84.7077 6.9039M-89.43 10.5307H-105.232M-87.9599 22.1847L-93.0831 26.3508M-87.9599 22.1847H-71.3153M-66.6618 18.1641L-62.1684 14.2817M-66.6618 18.1641L-71.3153 22.1847M-62.1684 14.2817L-57.8267 10.5307M-73.6283 10.5307H-57.8267M-73.6283 10.5307L-69.1681 6.9039M-71.3153 22.1847L-76.1371 26.3508M-42.0248 10.5307L-38.0896 6.9039M-42.0248 10.5307H-57.8267M-57.8267 10.5307L-53.6289 6.9039M-110.029 26.3508H-93.0831M-110.029 26.3508H-126.975M-98.3954 30.6705L-93.0831 26.3508M-98.3954 30.6705L-103.907 35.1523M-98.3954 30.6705H-81.1368M-93.0831 26.3508H-76.1371M-126.975 26.3508L-121.25 22.1847M-126.975 26.3508H-136.821M-76.1371 26.3508L-81.1368 30.6705M-121.25 22.1847H-136.821M-103.907 35.1523L-109.63 39.8056M-103.907 35.1523H-86.3243M-81.1368 30.6705L-86.3243 35.1523M-86.3243 35.1523L-91.7105 39.8056M-127.549 39.8056L-133.845 44.6411M-127.549 39.8056H-109.63M-127.549 39.8056H-136.821M-109.63 39.8056L-115.576 44.6411M-109.63 39.8056H-91.7105M-91.7105 39.8056L-97.3069 44.6411M-121.759 49.6689L-115.576 44.6411M-121.759 49.6689L-128.193 54.9009M-121.759 49.6689H-103.126M-121.759 49.6689H-136.821M-115.576 44.6411H-133.845M-115.576 44.6411H-97.3069M-133.845 44.6411L-136.821 46.9264M-133.845 44.6411H-136.821M-97.3069 44.6411L-103.126 49.6689M-128.193 54.9009L-134.894 60.3498M-128.193 54.9009H-109.182M-128.193 54.9009H-136.821M-103.126 49.6689L-109.182 54.9009M-109.182 54.9009L-115.489 60.3498M-134.894 60.3498H-115.489M-134.894 60.3498L-136.821 61.9165M-134.894 60.3498H-136.821M-115.489 60.3498L-122.063 66.0296M-128.921 71.9551L-122.063 66.0296M-128.921 71.9551L-136.082 78.1422M-128.921 71.9551H-136.821M-122.063 66.0296H-136.821M-136.925 66.0296H-136.821M-136.082 78.1422H-136.821M-136.082 78.1422L-136.821 78.7807M-137 78.9351L-136.821 78.7807M-132.077 18.1641L-126.461 14.2817M-132.077 18.1641H-136.821M-132.077 18.1641L-136.821 21.4429M-126.461 14.2817L-121.033 10.5307M-126.461 14.2817H-136.821M-105.232 10.5307L-100.247 6.9039M-105.232 10.5307H-121.033M-121.033 10.5307L-115.786 6.9039M-121.033 10.5307H-136.821M412.55 6.9039H428.09M412.55 6.9039H397.011M424.283 3.39588L425.223 4.26221L428.09 6.9039M424.283 3.39588H439.569M428.09 6.9039H443.629M439.569 3.39588L440.571 4.26221L441.076 4.69738L443.629 6.9039M443.629 6.9039H459.168M459.168 6.9039H474.708M397.011 6.9039H381.472M474.708 6.9039H490.247M490.247 6.9039L485.425 3.39588M490.247 6.9039H505.786M485.425 3.39588H500.71M350.393 6.9039H365.933M350.393 6.9039H334.854M363.141 3.39588L363.83 4.26221L364.177 4.69738L365.933 6.9039M363.141 3.39588H378.426M365.933 6.9039H381.472M378.426 3.39588L381.472 6.9039M334.854 6.9039H319.314M288.236 6.9039H303.775M288.236 6.9039H272.697M301.999 3.39588L302.218 3.82771L302.437 4.26221L302.658 4.69738L303.775 6.9039M301.999 3.39588H317.284M303.775 6.9039H319.314M317.284 3.39588L319.314 6.9039M272.697 6.9039H257.157M226.078 6.9039H241.618M226.078 6.9039H210.539M240.857 3.39588L241.618 6.9039M240.857 3.39588H256.142M241.618 6.9039H257.157M256.142 3.39588L256.267 3.82771L256.393 4.26221L256.519 4.69738L257.157 6.9039M210.539 6.9039H195M163.921 6.9039H179.461M163.921 6.9039H148.382M179.714 3.39588L179.461 6.9039M179.714 3.39588H195M179.461 6.9039H195M195 3.39588V6.9039M148.382 6.9039H132.843M101.764 6.9039H117.303M101.764 6.9039H86.2248M118.572 3.39588L118.259 4.26221L117.624 6.01556L117.303 6.9039M118.572 3.39588H133.858M117.303 6.9039H132.843M133.858 3.39588L133.733 3.82771L133.607 4.26221L133.481 4.69738L132.843 6.9039M86.2248 6.9039H70.6856M39.607 6.9039H55.1463M39.607 6.9039H24.0674M57.4303 3.39588L56.8663 4.26221L56.5825 4.69738L55.1463 6.9039M57.4303 3.39588H72.7159M55.1463 6.9039H70.6856M72.7159 3.39588L72.4657 3.82771L70.6856 6.9039M24.0674 6.9039H8.52818M-22.5503 6.9039H-7.01108M-22.5503 6.9039H-38.0896M-3.71188 3.39588L-4.52657 4.26221L-4.93651 4.69738L-7.01108 6.9039M-3.71188 3.39588H11.5737M-7.01108 6.9039H8.52818M11.5737 3.39588L11.1983 3.82771L8.52818 6.9039M-38.0896 6.9039H-53.6289M-84.7077 6.9039H-69.1681M-84.7077 6.9039H-100.247M-64.8541 3.39588L-69.1681 6.9039M-64.8541 3.39588H-49.5685M-69.1681 6.9039H-53.6289M-49.5685 3.39588L-50.5709 4.26221L-51.0756 4.69738L-53.6289 6.9039M-100.247 6.9039H-115.786M-125.996 3.39588L-131.326 6.9039M-125.996 3.39588H-110.71M-125.996 3.39588H-136.821M-131.326 6.9039H-115.786M-131.326 6.9039L-136.821 10.5218M-131.326 6.9039H-136.821M-110.71 3.39588L-111.964 4.26221L-115.786 6.9039M500.71 3.39588L501.964 4.26221L505.786 6.9039M505.786 6.9039H521.325M521.325 6.9039L526.821 10.5219M521.325 6.9039H526.821M526.821 174.344V170.064M526.821 174.344V181.438M526.821 170.064V159.335M526.821 181.438V183.558V193.518M526.821 193.518V206.372M526.821 91.376V84.6096M526.821 91.376V97.8932M526.821 3.39588V6.9039M526.821 6.9039V10.5219M526.821 10.5219L526.835 10.5307H526.821M526.821 10.5219V10.5307M526.821 10.5307V14.2817M526.821 14.2817V18.1641M526.821 18.1641V21.4429M526.821 21.4429V22.1847M526.821 22.1847V26.3508M526.821 26.3508V30.6705M526.821 30.6705V33.5138M526.821 33.5138V35.1523M526.821 35.1523V39.8056M526.821 39.8056V44.6411M526.821 44.6411V46.9264M526.821 46.9264V49.6689M526.821 49.6689V54.9009M526.821 54.9009V60.3498M526.821 60.3498V61.9165M526.821 61.9165V66.0296M526.821 66.0296V71.9551M526.821 71.9551V78.1422M526.821 78.1422V78.7807M526.821 78.7807V84.6096M526.821 98.4628V105.893M526.821 98.4628V97.8932M526.821 105.893V113.694M526.821 113.694V119.736M526.821 119.736V121.891M526.821 121.891V130.518M526.821 130.518V139.607M526.821 139.607V144.939M526.821 144.939V149.2M526.821 149.2V159.335M526.821 206.372V209.094M526.821 209.094V220.075M526.821 220.075V234.717M526.821 234.717V250.395M526.821 250.395V250.793M526.821 250.793V267.226M526.821 267.226V285.34M526.821 285.34V301.761M526.821 301.761V304.889M526.821 304.889V326.052M526.821 326.052V349.037M526.821 349.037V365.469M526.821 365.469V374.09M526.821 374.09V401.503M526.821 401.503V431.626M526.821 431.626V447.38M526.821 447.38V464.881M526.821 464.881V465H-136.821V464.881M-136.821 98.4628V105.893M-136.821 98.4628V97.8932M-136.821 97.8932V91.376M-136.821 91.376V84.6096M-136.821 84.6096V78.7807M-136.821 78.7807V78.1422M-136.821 78.1422V71.9551M-136.821 71.9551V66.0296M-136.821 66.0296V61.9165M-136.821 61.9165V60.3498M-136.821 60.3498V54.9009M-136.821 54.9009V49.6689M-136.821 49.6689V46.9264M-136.821 46.9264V44.6411M-136.821 44.6411V39.8056M-136.821 39.8056V35.1523M-136.821 35.1523V33.5138M-136.821 33.5138V30.6705M-136.821 30.6705V26.3508M-136.821 26.3508V22.1847M-136.821 22.1847V21.4429M-136.821 21.4429V18.1641M-136.821 18.1641V14.2817M-136.821 14.2817V10.5307M-136.821 10.5307H-136.835L-136.821 10.5218M-136.821 10.5307V10.5218M-136.821 10.5218V6.9039M-136.821 6.9039V3.39588M-136.821 464.881V447.38M-136.821 447.38V431.626M-136.821 431.626V401.503M-136.821 401.503V374.09M-136.821 374.09V365.469M-136.821 365.469V349.037M-136.821 349.037V326.052M-136.821 326.052V304.889M-136.821 304.889V301.761M-136.821 301.761V285.34M-136.821 285.34V267.226M-136.821 267.226V250.793M-136.821 250.793V250.395M-136.821 250.395V234.717M-136.821 234.717V220.075M-136.821 220.075V209.094M-136.821 209.094V206.372M-136.821 206.372V193.518M-136.821 193.518V181.438M-136.821 181.438V174.343M-136.821 174.343V170.064M-136.821 170.064V159.335M-136.821 159.335V149.2M-136.821 149.2V144.939M-136.821 144.939V139.607M-136.821 139.607V130.518M-136.821 130.518V121.891M-136.821 121.891V119.736M-136.821 119.736V113.694M-136.821 113.694V105.893" stroke="url(#paint0_radial_933_8822)" stroke-width="1.2" stroke-miterlimit="10" stroke-linecap="round" stroke-linejoin="round"/>
  <defs>
    <radialGradient id="paint0_radial_933_8822" cx="0" cy="0" r="1" gradientTransform="matrix(-6.75541e-05 168.557 -239.73 -0.000371631 195 232.5)" gradientUnits="userSpaceOnUse">
      <stop offset="0.243225" stop-color="#1B4332"/>
      <stop offset="0.761194" stop-color="white" stop-opacity="0"/>
    </radialGradient>
  </defs>
</svg>
